<svg width="176" height="175" viewBox="0 0 176 175" fill="none" xmlns="http://www.w3.org/2000/svg">
<path d="M87.8652 174.748C54.9087 174.748 26.1968 156.553 11.3328 129.685C-21.4597 70.445 23.7714 -1.46936 89.799 0.637602C131.802 1.48692 167.282 32.34 174.05 73.3686C182.932 126.32 141.88 174.748 87.8652 174.748Z" fill="url(#paint0_radial_13_4)"/>
<g opacity="0.75">
<path d="M122.559 101.756C118.937 100.857 117.937 105.349 119.986 106.361C122.034 107.39 127.18 110.461 128.213 108.403C129.245 106.361 126.672 102.784 122.559 101.756Z" fill="#056DB1"/>
<path d="M158.53 63.8628C155.023 64.6632 150.828 66.4271 154.417 68.9914C158.022 71.5557 163.66 70.5267 164.184 67.4561C164.692 64.3692 165.217 62.3275 158.53 63.8628Z" fill="#056DB1"/>
<path d="M88.1272 146.312C80.5887 141.804 69.6251 140.171 68.5926 144.777C67.5602 149.383 74.7545 156.553 83.4894 155.524C92.2406 154.511 93.2731 149.383 88.1272 146.312Z" fill="#056DB1"/>
<path d="M112.71 171.171C105.909 173.18 98.7633 174.389 91.3723 174.666C93.0602 164.001 103.237 167.365 108.678 168.835C110.268 169.276 111.595 170.142 112.71 171.171Z" fill="#056DB1"/>
<path d="M40.3395 145.806C43.6663 147.259 45.9934 140.171 41.3719 134.03C36.7505 127.888 34.6856 120.195 29.0317 118.66C23.3778 117.125 20.2968 137.1 40.3395 145.806Z" fill="#056DB1"/>
<path d="M17.7241 120.702C15.905 121.028 15.1511 124.801 19.2646 125.308C23.378 125.83 23.378 119.689 17.7241 120.702Z" fill="#056DB1"/>
<path d="M63.4631 99.714C59.8413 99.3873 56.2688 101.249 56.7768 105.349C57.2848 109.448 62.9387 105.349 65.5116 105.349C68.0845 105.349 69.117 100.22 63.4631 99.714Z" fill="#056DB1"/>
<path d="M98.9271 52.0868C95.8134 50.6168 95.3217 57.2153 97.8947 58.228C100.468 59.257 107.662 56.17 98.9271 52.0868Z" fill="#056DB1"/>
</g>
<path d="M66.0362 85.3736C48.5665 88.4442 45.9936 88.9505 30.0644 102.278C19.5268 111.082 8.53042 108.24 2.30295 105.3C1.13939 99.616 0.516602 93.7198 0.516602 87.6766C0.516602 62.9157 10.8903 40.5558 27.5406 24.7127C30.9657 26.738 34.5055 29.482 37.2587 33.1406C44.9611 43.3814 43.4206 47.4809 66.0362 59.2571C88.6353 71.0332 83.5059 82.303 66.0362 85.3736Z" fill="url(#paint1_linear_13_4)"/>
<path d="M166.823 50.3717C150.697 47.0071 139.701 65.1858 128.721 63.8628C115.872 62.3275 119.478 43.3812 108.678 23.4059C103.27 13.4101 102.893 6.48488 103.86 2.07496C131.769 7.20353 155.007 25.5619 166.823 50.3717Z" fill="url(#paint2_linear_13_4)"/>
<path d="M175.23 87.6765C175.23 121.47 155.925 150.755 127.705 165.193C121.264 155.05 131.703 147.521 144.142 139.665C159.563 129.93 145.174 125.83 147.731 109.955C150.304 94.079 140.536 93.05 145.158 79.7386C148.452 70.2328 165.627 79.2486 175.181 85.1938C175.214 86.0105 175.23 86.8435 175.23 87.6765Z" fill="url(#paint3_linear_13_4)"/>
<path d="M93.273 114.054C83.9318 116.945 78.8843 105.855 67.0685 108.419C55.2527 110.984 45.4854 131.972 61.4146 131.465C77.3438 130.959 81.4572 128.901 93.273 137.1C105.089 145.299 118.97 139.665 123.083 126.859C127.18 114.054 124.607 104.32 93.273 114.054Z" fill="url(#paint4_linear_13_4)"/>
<path d="M112.791 75.639C107.875 77.207 106.63 79.7386 108.17 82.8092C109.71 85.8798 115.872 85.3735 118.953 89.9794C122.034 94.5853 129.753 100.22 131.802 89.9794C133.866 79.7386 124.099 72.0457 112.791 75.639Z" fill="url(#paint5_linear_13_4)"/>
<path opacity="0.5" d="M94.8137 48.9999C93.8959 55.8271 87.6193 48.9999 77.344 46.9583C67.0686 44.9167 62.9553 38.7591 67.5767 34.6595C72.1981 30.5599 78.3601 27.4893 84.5384 31.0663C90.7003 34.6595 95.8297 41.3234 94.8137 48.9999Z" fill="#056DB1"/>
<path d="M84.0139 8.54296C71.1656 8.54296 65.0037 15.7132 53.1879 19.8128C46.141 22.2464 40.5691 19.4208 37.2095 16.7421C51.4999 6.583 68.986 0.605125 87.8815 0.605125C88.537 0.605125 89.1762 0.605107 89.8153 0.637774C90.7166 4.32904 90.3889 8.54296 84.0139 8.54296Z" fill="url(#paint6_linear_13_4)"/>
<path opacity="0.45" d="M171.067 114.316C163.939 136.447 148.157 154.723 127.704 165.193C122.936 167.627 117.921 169.635 112.709 171.187C105.908 173.196 98.7632 174.405 91.3721 174.682C90.2086 174.731 89.0451 174.748 87.8651 174.748C54.9087 174.748 26.1967 156.553 11.3327 129.685C7.17017 122.172 4.08925 113.973 2.30295 105.3C1.13939 99.6158 0.516602 93.7196 0.516602 87.6763C0.516602 77.1579 2.38486 67.0804 5.80997 57.7542C15.692 87.17 38.3076 125.128 89.717 132.168C99.7465 133.539 109.12 133.719 117.872 132.968C139.34 131.09 157.006 123.609 171.067 114.316Z" fill="url(#paint7_linear_13_4)"/>
<path opacity="0.45" d="M175.23 87.6763C175.23 96.9698 173.771 105.92 171.067 114.316C163.939 136.447 148.157 154.723 127.704 165.193C122.936 167.627 117.921 169.635 112.709 171.187C105.908 173.196 98.7631 174.405 91.3721 174.682C90.2085 174.731 89.045 174.748 87.8651 174.748C54.9086 174.748 26.1967 156.553 11.3327 129.685C26.4425 135.875 44.4366 140.105 65.7739 140.938C86.4721 141.755 103.647 138.57 117.872 132.952C148.452 120.898 165.495 97.5741 174.738 78.3665C174.984 80.6041 175.132 82.8908 175.197 85.1774C175.214 86.0104 175.23 86.8434 175.23 87.6763Z" fill="url(#paint8_linear_13_4)"/>
<path d="M174.067 73.4174C174.067 73.4174 161.628 28.0116 104.434 13.0669C70.1497 4.10005 46.3542 12.1849 32.8012 20.0901C76.0821 -15.1239 142.274 -1.14286 166.823 50.3715C172.526 62.311 173.657 71.7515 174.067 73.4174Z" fill="url(#paint9_linear_13_4)"/>
<defs>
<radialGradient id="paint0_radial_13_4" cx="0" cy="0" r="1" gradientUnits="userSpaceOnUse" gradientTransform="translate(92.2023 53.6027) scale(106.022 105.665)">
<stop stop-color="#00B3DC"/>
<stop offset="1" stop-color="#056DB0"/>
</radialGradient>
<linearGradient id="paint1_linear_13_4" x1="30.4665" y1="-46.5611" x2="50.3733" y2="203.879" gradientUnits="userSpaceOnUse">
<stop stop-color="#F2F236"/>
<stop offset="1" stop-color="#F2F236" stop-opacity="0"/>
</linearGradient>
<linearGradient id="paint2_linear_13_4" x1="128.496" y1="-54.3534" x2="148.403" y2="196.087" gradientUnits="userSpaceOnUse">
<stop stop-color="#F2F236"/>
<stop offset="1" stop-color="#F2F236" stop-opacity="0"/>
</linearGradient>
<linearGradient id="paint3_linear_13_4" x1="136.28" y1="-54.9721" x2="156.187" y2="195.468" gradientUnits="userSpaceOnUse">
<stop stop-color="#F2F236"/>
<stop offset="1" stop-color="#F2F236" stop-opacity="0"/>
</linearGradient>
<linearGradient id="paint4_linear_13_4" x1="75.0666" y1="-50.1063" x2="94.9733" y2="200.334" gradientUnits="userSpaceOnUse">
<stop stop-color="#F2F236"/>
<stop offset="1" stop-color="#F2F236" stop-opacity="0"/>
</linearGradient>
<linearGradient id="paint5_linear_13_4" x1="108.893" y1="-52.7955" x2="128.8" y2="197.645" gradientUnits="userSpaceOnUse">
<stop stop-color="#F2F236"/>
<stop offset="1" stop-color="#F2F236" stop-opacity="0"/>
</linearGradient>
<linearGradient id="paint6_linear_13_4" x1="58.994" y1="-48.8289" x2="78.901" y2="201.611" gradientUnits="userSpaceOnUse">
<stop stop-color="#F2F236"/>
<stop offset="1" stop-color="#F2F236" stop-opacity="0"/>
</linearGradient>
<linearGradient id="paint7_linear_13_4" x1="74.5862" y1="200.395" x2="87.6026" y2="81.3162" gradientUnits="userSpaceOnUse">
<stop stop-color="#00ACD8"/>
<stop offset="1" stop-color="#0983BD"/>
</linearGradient>
<linearGradient id="paint8_linear_13_4" x1="83.396" y1="195.276" x2="97.9438" y2="70.8185" gradientUnits="userSpaceOnUse">
<stop stop-color="#056EB1"/>
<stop offset="1" stop-color="#00A9D7" stop-opacity="0.3"/>
</linearGradient>
<linearGradient id="paint9_linear_13_4" x1="151.312" y1="-47.3485" x2="96.6204" y2="60.864" gradientUnits="userSpaceOnUse">
<stop stop-color="#E2FFB5"/>
<stop offset="1" stop-color="#FFFFB3" stop-opacity="0"/>
</linearGradient>
</defs>
</svg>
