<svg width="182" height="182" viewBox="0 0 182 182" fill="none" xmlns="http://www.w3.org/2000/svg">
<path d="M37.5373 163.872C-13.0024 126.947 -11.4261 50.4819 41.1496 15.791C76.8296 -7.84027 125.185 -3.14031 155.66 28.5762C169.683 43.1526 178.779 62.3962 180.52 83.6281C186.973 160.734 99.4723 209.311 37.5373 163.872Z" fill="url(#paint0_radial_23_81)"/>
<path d="M176.792 64.3024C162.491 64.2531 135.284 61.7552 103.61 46.7843C68.6034 30.2359 39.6227 27.4751 27.2258 27.1464C31.4785 22.923 36.1417 19.1105 41.1661 15.8074C49.4088 16.9906 64.9582 20.4251 93.3314 29.7922C126.959 40.9012 146.301 34.4264 155.693 28.5926C165.266 38.5512 172.589 50.7284 176.792 64.3024Z" fill="url(#paint1_linear_23_81)"/>
<path d="M147.844 21.3454C139.996 24.4678 124.561 27.1629 97.9451 19.472C74.6456 12.7343 60.8367 10.1214 53.103 9.15183C57.7334 7.01549 62.5607 5.27355 67.5687 3.94244C74.3665 5.76655 83.3973 8.54378 95.3672 12.7836C119.126 21.1975 134.331 20.0636 142.935 17.5986C144.626 18.7818 146.268 20.0308 147.844 21.3454Z" fill="url(#paint2_linear_23_81)"/>
<path d="M134.249 12.1099C125.251 12.9973 107.978 12.833 96.4018 1.09952C110.063 1.93762 122.903 5.83234 134.249 12.1099Z" fill="url(#paint3_linear_23_81)"/>
<path d="M180.848 91.089C180.848 92.2887 180.815 93.4883 180.782 94.688C168.747 96.0684 144.019 94.7373 104.135 74.0804C53.6941 47.9677 28.2273 46.4887 11.2986 48.51C12.2673 46.7024 13.2854 44.9276 14.3855 43.2021C25.6494 41.8052 50.8371 42.1996 92.8222 60.6708C144.708 83.4968 161.243 88.4433 180.552 83.5954C180.733 86.0769 180.848 88.5747 180.848 91.089Z" fill="url(#paint4_linear_23_81)"/>
<path d="M75.2861 74.6062C43.7111 60.0298 14.6811 64.8612 3.71276 67.6056C1.97228 74.0475 0.937823 80.7688 0.691528 87.7037C61.3786 76.7097 105.827 110.743 90.737 113.258C75.2861 115.838 68.6033 117.892 44.4007 125.632C26.7331 131.285 12.6122 125.928 6.30707 122.625C8.73718 129.165 11.9062 135.344 15.7319 141.063C47.0607 152.78 72.1006 140.389 104.661 130.266C129.964 122.395 154.593 130.661 168.271 137.103C172.868 129.362 176.333 120.866 178.467 111.861C134.594 119.93 112.427 91.7463 75.2861 74.6062Z" fill="url(#paint5_linear_23_81)"/>
<path d="M56.2389 111.187C46.9782 111.696 41.8224 114.276 27.4059 116.347C20.2962 117.366 11.0684 115.755 3.53176 113.849C2.08683 108.311 1.16732 102.543 0.806091 96.6433C43.6286 89.7084 64.9577 110.694 56.2389 111.187Z" fill="url(#paint6_linear_23_81)"/>
<path d="M155.644 153.635C153.542 155.82 151.342 157.891 149.027 159.846C138.042 156.412 125.596 154.259 112.345 154.982C81.7884 156.658 63.4969 167.192 37.521 163.873C35.9776 162.739 34.467 161.572 33.0056 160.339C43.6127 161.769 62.6595 161.079 95.8601 151.893C119.176 145.451 139.389 147.932 155.644 153.635Z" fill="url(#paint7_linear_23_81)"/>
<path d="M134.939 169.69C121.885 177.052 106.795 181.259 90.737 181.259C84.9737 181.259 79.3417 180.717 73.8904 179.682C93.2327 158.236 121.425 164.76 134.939 169.69Z" fill="url(#paint8_linear_23_81)"/>
<path opacity="0.55" d="M171.981 130.118C170.832 132.501 169.584 134.818 168.254 137.086C164.691 143.084 160.455 148.639 155.644 153.635C153.542 155.82 151.342 157.891 149.027 159.846C144.659 163.56 139.947 166.863 134.922 169.69C121.869 177.052 106.779 181.259 90.7205 181.259C84.9572 181.259 79.3252 180.717 73.8739 179.682C60.4755 177.151 48.1279 171.646 37.5372 163.873C35.9937 162.739 34.4831 161.572 33.0218 160.339C26.3718 154.785 20.5264 148.294 15.7155 141.047C11.9061 135.328 8.7371 129.149 6.29057 122.608C5.22329 119.749 4.30379 116.824 3.51564 113.833C2.07071 108.295 1.15123 102.527 0.79 96.627C0.724321 95.6082 0.675059 94.5893 0.65864 93.5704C0.6258 92.7487 0.625793 91.9106 0.625793 91.089C0.625793 89.9551 0.642202 88.8211 0.691461 87.6872C0.954176 80.7688 1.98863 74.0311 3.7127 67.5892C5.51886 60.8843 8.06391 54.5082 11.2822 48.51C12.2509 46.7023 13.2689 44.9275 14.369 43.202C15.4199 41.5422 16.5036 39.9153 17.653 38.3213C30.3618 44.1716 43.399 56.661 52.8896 81.5412C66.5179 117.267 90.9668 138.713 118.667 142.871C135.792 145.467 154.166 141.441 171.981 130.118Z" fill="url(#paint9_linear_23_81)"/>
<path opacity="0.5" d="M180.569 98.1882C180.208 102.839 179.485 107.407 178.434 111.844C176.924 118.221 174.756 124.35 171.981 130.118C170.832 132.501 169.584 134.818 168.254 137.086C164.691 143.084 160.455 148.639 155.644 153.635C153.542 155.82 151.342 157.891 149.027 159.846C144.659 163.56 139.947 166.863 134.922 169.69C121.869 177.052 106.779 181.259 90.7205 181.259C84.9572 181.259 79.3253 180.717 73.8739 179.682C60.4755 177.151 48.1279 171.646 37.5372 163.873C35.9938 162.739 34.4832 161.572 33.0218 160.339C26.3719 154.785 20.5265 148.294 15.7155 141.047C11.9062 135.328 8.73715 129.149 6.29062 122.608C5.22334 119.749 4.30384 116.824 3.5157 113.833C2.07077 108.295 1.15128 102.527 0.790052 96.627C0.724373 95.6082 0.675111 94.5893 0.658691 93.5704C9.37753 113.06 25.1404 131.877 53.1359 142.624C77.0594 151.794 99.2752 149.953 118.65 142.887C146.088 132.928 167.811 112.551 180.569 98.1882Z" fill="url(#paint10_linear_23_81)" stroke="url(#paint11_radial_23_81)" stroke-miterlimit="10"/>
<path d="M180.585 97.991C180.552 96.0848 179.403 51.5995 126.006 24.4844C62.4947 -7.77443 21.774 33.2434 20.8545 34.1801C54.9089 -7.74158 118.141 -10.4695 155.66 28.5927C173.524 47.146 182.522 72.2399 180.585 97.991Z" fill="url(#paint12_linear_23_81)"/>
<defs>
<radialGradient id="paint0_radial_23_81" cx="0" cy="0" r="1" gradientUnits="userSpaceOnUse" gradientTransform="translate(101.059 44.2279) scale(106.552 106.642)">
<stop stop-color="#EFA08F"/>
<stop offset="1" stop-color="#C97324"/>
</radialGradient>
<linearGradient id="paint1_linear_23_81" x1="47.4856" y1="196.052" x2="123.283" y2="-12.6034" gradientUnits="userSpaceOnUse">
<stop stop-color="#864313"/>
<stop offset="1" stop-color="#9B4413" stop-opacity="0.1"/>
</linearGradient>
<linearGradient id="paint2_linear_23_81" x1="36.3653" y1="192.013" x2="112.163" y2="-16.6434" gradientUnits="userSpaceOnUse">
<stop stop-color="#863613"/>
<stop offset="1" stop-color="#9B4C13" stop-opacity="0.1"/>
</linearGradient>
<linearGradient id="paint3_linear_23_81" x1="46.7121" y1="195.769" x2="122.509" y2="-12.8846" gradientUnits="userSpaceOnUse">
<stop stop-color="#865113"/>
<stop offset="1" stop-color="#9B3C13" stop-opacity="0.1"/>
</linearGradient>
<linearGradient id="paint4_linear_23_81" x1="50.4994" y1="197.147" x2="126.297" y2="-11.5086" gradientUnits="userSpaceOnUse">
<stop stop-color="#864A13"/>
<stop offset="1" stop-color="#9B3C13" stop-opacity="0.1"/>
</linearGradient>
<linearGradient id="paint5_linear_23_81" x1="52.2207" y1="197.772" x2="128.018" y2="-10.8833" gradientUnits="userSpaceOnUse">
<stop stop-color="#864A13"/>
<stop offset="1" stop-color="#9B3C13" stop-opacity="0.1"/>
</linearGradient>
<linearGradient id="paint6_linear_23_81" x1="1.8673" y1="179.48" x2="77.6648" y2="-29.175" gradientUnits="userSpaceOnUse">
<stop stop-color="#863C13"/>
<stop offset="1" stop-color="#9B5413" stop-opacity="0.1"/>
</linearGradient>
<linearGradient id="paint7_linear_23_81" x1="76.3645" y1="206.543" x2="152.162" y2="-2.11237" gradientUnits="userSpaceOnUse">
<stop stop-color="#864A13"/>
<stop offset="1" stop-color="#9B6513" stop-opacity="0.1"/>
</linearGradient>
<linearGradient id="paint8_linear_23_81" x1="90.9388" y1="211.837" x2="166.736" y2="3.1817" gradientUnits="userSpaceOnUse">
<stop stop-color="#863C13"/>
<stop offset="1" stop-color="#9B4413" stop-opacity="0.1"/>
</linearGradient>
<linearGradient id="paint9_linear_23_81" x1="100.751" y1="169.462" x2="54.343" y2="0.214231" gradientUnits="userSpaceOnUse">
<stop stop-color="#7F4612"/>
<stop offset="1" stop-color="#D5743D" stop-opacity="0.1"/>
</linearGradient>
<linearGradient id="paint10_linear_23_81" x1="105.209" y1="183.62" x2="91.0364" y2="101.198" gradientUnits="userSpaceOnUse">
<stop stop-color="#6D2812"/>
<stop offset="1" stop-color="#6A3C12" stop-opacity="0"/>
</linearGradient>
<radialGradient id="paint11_radial_23_81" cx="0" cy="0" r="1" gradientUnits="userSpaceOnUse" gradientTransform="translate(90.6626 135.794) scale(72.1281 72.1886)">
<stop stop-color="#EFA68F"/>
<stop offset="1" stop-color="#C96924"/>
</radialGradient>
<linearGradient id="paint12_linear_23_81" x1="168.697" y1="-42.5438" x2="80.5399" y2="98.0809" gradientUnits="userSpaceOnUse">
<stop stop-color="#FFDFAE"/>
<stop offset="1" stop-color="#FFD5AE" stop-opacity="0"/>
</linearGradient>
</defs>
</svg>
