<svg width="187" height="188" viewBox="0 0 187 188" fill="none" xmlns="http://www.w3.org/2000/svg">
<path d="M186.603 93.998C186.603 96.7592 186.486 99.4867 186.251 102.197C186.034 104.723 185.715 107.215 185.296 109.673C184.894 112.081 184.392 114.454 183.822 116.778C182.13 123.563 179.7 130.062 176.634 136.157C175.646 138.11 174.59 140.029 173.485 141.915C171.407 145.4 169.128 148.751 166.615 151.933C165.342 153.549 164.035 155.115 162.661 156.63C153.832 166.48 142.941 174.427 130.694 179.797C129.789 180.202 128.868 180.572 127.946 180.942C125.215 182.037 122.434 182.996 119.586 183.838C117.558 184.428 115.514 184.949 113.437 185.404C107.02 186.801 100.352 187.542 93.5158 187.542C67.1108 187.542 43.2861 176.497 26.3306 158.752C24.3201 156.647 22.4101 154.441 20.6006 152.152C16.9147 147.505 13.681 142.487 10.9166 137.184C10.2129 135.837 9.54271 134.456 8.90604 133.059C6.57718 127.991 4.70069 122.688 3.31007 117.182C1.41682 109.757 0.41156 101.979 0.41156 93.9643C0.41156 89.0312 0.796911 84.199 1.51735 79.4848C1.80218 77.6664 2.12051 75.8818 2.50586 74.1139C2.92472 72.1272 3.42735 70.1741 3.96349 68.2379C4.96876 64.6854 6.19183 61.2002 7.5992 57.8329C10.1459 51.7212 13.3292 45.9294 17.0487 40.5585C19.3273 37.2754 21.8069 34.1437 24.4709 31.1805C29.514 25.5907 35.2105 20.6239 41.4431 16.3811C41.6441 16.2464 41.8452 16.1117 42.0462 15.977C46.2013 13.199 50.591 10.7577 55.1817 8.66992C64.2961 4.5281 74.1812 1.81741 84.5689 0.840883C87.501 0.554661 90.4665 0.419968 93.4655 0.419968C102.412 0.419968 111.074 1.69955 119.267 4.05668C122.752 5.06688 126.153 6.26228 129.454 7.65972C130.694 8.18165 131.917 8.72042 133.123 9.29287C138.15 11.6668 142.925 14.4954 147.415 17.6943C152.273 21.1795 156.78 25.1025 160.885 29.4295C168.76 37.7468 175.126 47.4952 179.55 58.2706C180.103 59.6176 180.639 60.9982 181.125 62.3788C182.699 66.79 183.956 71.3527 184.861 76.0501C186.017 81.8924 186.603 87.8863 186.603 93.998Z" fill="url(#paint0_radial_3_626)"/>
<path d="M186.603 93.998C186.603 101.861 185.631 109.488 183.822 116.778C137.329 96.7423 57.3765 133.615 3.31007 117.199C1.41682 109.774 0.41156 101.995 0.41156 93.9811C0.41156 89.048 0.796911 84.2159 1.51735 79.5016C96.5316 113.343 131.079 66.2512 184.894 76.1006C186.017 81.8924 186.603 87.8863 186.603 93.998Z" fill="url(#paint1_linear_3_626)"/>
<path d="M181.175 62.4292C130.543 53.8594 71.6176 88.9469 3.99683 68.2547C5.00209 64.7022 6.22516 61.217 7.63253 57.8497C62.52 79.3164 128.7 51.9737 179.6 58.3211C180.153 59.6849 180.689 61.0486 181.175 62.4292Z" fill="url(#paint2_linear_3_626)"/>
<path d="M160.935 29.4968C107.69 62.5134 40.4378 47.411 17.0821 40.5921C19.3607 37.309 21.8404 34.1774 24.5043 31.2141C90.9858 48.236 132.503 27.5774 147.465 17.7617C152.324 21.23 156.831 25.1698 160.935 29.4968Z" fill="url(#paint3_linear_3_626)"/>
<path d="M133.173 9.34339C110.79 23.8902 80.4809 14.1587 41.4766 16.4148C45.816 13.4684 50.4067 10.8924 55.2152 8.7036C78.8222 9.73063 112.147 17.6102 129.504 7.69341C130.744 8.21534 131.967 8.77095 133.173 9.34339Z" fill="url(#paint4_linear_3_626)"/>
<path d="M119.334 4.09039C113.035 7.17149 101.34 9.79801 84.636 0.87459C87.568 0.588367 90.5335 0.453674 93.5326 0.453674C102.479 0.453674 111.125 1.71642 119.334 4.09039Z" fill="url(#paint5_linear_3_626)"/>
<path d="M176.634 136.157C175.646 138.11 174.59 140.029 173.484 141.915C133.491 123.715 59.6716 143.952 10.933 137.218C10.2294 135.871 9.55918 134.49 8.92252 133.093C72.8071 141.023 142.087 114.875 176.634 136.157Z" fill="url(#paint6_linear_3_626)"/>
<path d="M119.585 183.821C117.558 184.411 115.514 184.933 113.436 185.387C96.2464 182.575 43.1349 152.32 26.3303 158.752C24.3198 156.647 22.4098 154.441 20.6003 152.152C57.9291 151.781 97.3522 182.037 119.585 183.821Z" fill="url(#paint7_linear_3_626)"/>
<path d="M162.678 156.63C153.848 166.48 142.958 174.427 130.71 179.797C113.152 174.46 103.015 164.022 96.8832 161.075C87.9196 156.748 85.2222 153.297 119.753 150.704C137.345 149.357 152.273 152.876 162.678 156.63Z" fill="url(#paint8_linear_3_626)"/>
<path opacity="0.45" d="M185.313 109.673C179.164 146.68 150.883 177.171 113.453 185.404C46.9887 199.934 -11.8025 140.467 2.53925 74.1475C10.2463 88.7954 27.386 104.42 64.7819 110.245C121.378 119.034 158.238 103.359 185.313 109.673Z" fill="url(#paint9_linear_3_626)"/>
<path opacity="0.55" d="M165.124 153.785C164.337 154.745 163.516 155.704 162.678 156.63C153.848 166.48 142.958 174.427 130.711 179.797C129.806 180.202 128.884 180.572 127.963 180.942C125.232 182.037 122.451 182.996 119.602 183.838C117.575 184.428 115.531 184.949 113.454 185.404C107.037 186.801 100.368 187.542 93.5326 187.542C67.1277 187.542 43.3029 176.497 26.3474 158.752C24.6217 156.933 22.963 155.064 21.3881 153.111C36.6849 158.886 58.8845 160.048 91.0697 152.051C119.351 145.013 144.03 146.932 165.124 153.785Z" fill="url(#paint10_linear_3_626)"/>
<path d="M186.603 93.998C186.603 96.7592 186.486 99.4867 186.251 102.197C185.983 81.1011 178.728 55.863 153.245 33.8912C104.322 -8.30138 54.6956 10.2021 42.0963 16.0107C46.2514 13.2327 50.6411 10.7914 55.2318 8.70362C64.3462 4.56181 74.2313 1.85111 84.619 0.87459C87.551 0.588367 90.5165 0.453674 93.5156 0.453674C102.462 0.453674 111.124 1.73326 119.317 4.09039C122.802 5.10058 126.203 6.29599 129.504 7.69343C130.744 8.21536 131.967 8.75413 133.173 9.32658C138.2 11.7005 142.975 14.5291 147.465 17.7281C152.324 21.2132 156.83 25.1362 160.935 29.4632C168.81 37.7805 175.177 47.5289 179.6 58.3043C180.153 59.6513 180.689 61.0319 181.175 62.4125C182.75 66.8237 184.006 71.3864 184.911 76.0838C186.017 81.8925 186.603 87.8863 186.603 93.998Z" fill="url(#paint11_linear_3_626)"/>
<defs>
<radialGradient id="paint0_radial_3_626" cx="0" cy="0" r="1" gradientUnits="userSpaceOnUse" gradientTransform="translate(78.7364 41.1714) scale(152.503 153.251)">
<stop stop-color="#FFA360"/>
<stop offset="1" stop-color="#F22749"/>
</radialGradient>
<linearGradient id="paint1_linear_3_626" x1="77.1769" y1="-20.3932" x2="114.583" y2="238.841" gradientUnits="userSpaceOnUse">
<stop stop-color="#FFBB71"/>
<stop offset="1" stop-color="#FFBB71" stop-opacity="0"/>
</linearGradient>
<linearGradient id="paint2_linear_3_626" x1="80.2719" y1="-20.84" x2="117.678" y2="238.393" gradientUnits="userSpaceOnUse">
<stop stop-color="#FFBB71"/>
<stop offset="1" stop-color="#FFBB71" stop-opacity="0"/>
</linearGradient>
<linearGradient id="paint3_linear_3_626" x1="81.0154" y1="-20.9473" x2="118.421" y2="238.286" gradientUnits="userSpaceOnUse">
<stop stop-color="#FFBB71"/>
<stop offset="1" stop-color="#FFBB71" stop-opacity="0"/>
</linearGradient>
<linearGradient id="paint4_linear_3_626" x1="82.4671" y1="-21.1572" x2="119.873" y2="238.078" gradientUnits="userSpaceOnUse">
<stop stop-color="#FFBB71"/>
<stop offset="1" stop-color="#FFBB71" stop-opacity="0"/>
</linearGradient>
<linearGradient id="paint5_linear_3_626" x1="98.2722" y1="-23.4378" x2="135.678" y2="235.799" gradientUnits="userSpaceOnUse">
<stop stop-color="#FFBB71"/>
<stop offset="1" stop-color="#FFBB71" stop-opacity="0"/>
</linearGradient>
<linearGradient id="paint6_linear_3_626" x1="70.7644" y1="-19.4679" x2="108.17" y2="239.766" gradientUnits="userSpaceOnUse">
<stop stop-color="#FFBB71"/>
<stop offset="1" stop-color="#FFBB71" stop-opacity="0"/>
</linearGradient>
<linearGradient id="paint7_linear_3_626" x1="43.8688" y1="-15.5878" x2="81.2749" y2="243.647" gradientUnits="userSpaceOnUse">
<stop stop-color="#FFBB71"/>
<stop offset="1" stop-color="#FFBB71" stop-opacity="0"/>
</linearGradient>
<linearGradient id="paint8_linear_3_626" x1="101.074" y1="-23.8409" x2="138.479" y2="235.393" gradientUnits="userSpaceOnUse">
<stop stop-color="#FFBB71"/>
<stop offset="1" stop-color="#FFBB71" stop-opacity="0"/>
</linearGradient>
<linearGradient id="paint9_linear_3_626" x1="80.4415" y1="185.828" x2="98.9831" y2="56.6714" gradientUnits="userSpaceOnUse">
<stop stop-color="#D8274D"/>
<stop offset="1" stop-color="#F22749" stop-opacity="0"/>
</linearGradient>
<linearGradient id="paint10_linear_3_626" x1="96.7484" y1="185.108" x2="89.6425" y2="121.467" gradientUnits="userSpaceOnUse">
<stop stop-color="#A9273E"/>
<stop offset="1" stop-color="#B62738" stop-opacity="0"/>
</linearGradient>
<linearGradient id="paint11_linear_3_626" x1="180.082" y1="-19.6789" x2="109.302" y2="64.1006" gradientUnits="userSpaceOnUse">
<stop stop-color="#FFECB8"/>
<stop offset="1" stop-color="#FFD371" stop-opacity="0.2"/>
</linearGradient>
</defs>
</svg>
