<svg width="187" height="187" viewBox="0 0 187 187" fill="none" xmlns="http://www.w3.org/2000/svg">
<path d="M186.586 93.2786C186.586 98.7214 186.116 104.062 185.216 109.239C184.725 112.022 184.132 114.764 183.417 117.465C179.45 132.279 171.926 145.62 161.825 156.547C158.165 160.516 154.158 164.159 149.843 167.432C145.877 170.461 141.644 173.182 137.207 175.556C131.196 178.768 124.796 181.326 118.09 183.168C110.259 185.316 102.019 186.442 93.513 186.442C89.6077 186.442 85.7637 186.196 82.0016 185.725C50.4729 181.838 23.8106 162.153 10.1931 134.837C4.87703 124.196 1.54426 112.41 0.665058 99.9491C0.501485 97.7392 0.419678 95.5089 0.419678 93.2786C0.419678 79.2212 3.52757 65.9005 9.08904 53.9508C14.0576 43.2697 21.0094 33.6935 29.4334 25.6929C37.2235 18.2857 46.3018 12.2085 56.3002 7.85011C67.6889 2.87787 80.284 0.115509 93.4925 0.115509C133.629 0.115509 167.836 25.5292 180.902 61.1738C184.153 70.0543 186.095 79.5486 186.504 89.4726C186.565 90.7208 186.586 91.9895 186.586 93.2786Z" fill="url(#paint0_radial_23_112)"/>
<path d="M10.1729 134.837C9.53905 133.568 8.92565 132.258 8.35315 130.949C4.1207 121.393 1.46266 111.019 0.665242 100.113C0.665242 100.051 0.665222 100.01 0.644775 99.9491C2.52586 99.7035 5.10214 100.563 6.98323 105.863C9.41637 112.758 20.7438 129.557 10.1729 134.837Z" fill="#F79C41"/>
<path d="M83.2901 118.999C83.1674 119.756 82.9016 120.472 82.5131 121.127C79.5484 126.447 69.2228 129.066 57.7114 127.082C47.6926 125.342 39.6979 120.595 37.1217 115.439C36.3651 113.925 36.0789 112.39 36.3447 110.855C37.5102 104.144 48.7762 102.527 61.7394 104.799C74.7025 107.029 84.4555 112.288 83.2901 118.999Z" fill="#F79C41"/>
<path d="M55.7075 74.6377L55.687 74.6582C53.1107 78.546 45.0752 74.9856 35.7311 68.8675C28.1046 63.8748 22.6658 58.9025 22.2977 55.1171C22.2159 54.2577 22.4 53.4392 22.8703 52.7026C25.4465 48.7739 35.6698 48.5079 45.0344 54.6465C54.3989 60.785 58.2837 70.7091 55.7075 74.6377Z" fill="#F79C41"/>
<path d="M158.84 132.013C151.295 138.315 142.258 139.932 138.68 135.614C138.496 135.389 138.332 135.164 138.189 134.919C135.449 130.437 138.721 122.396 145.877 116.441C153.156 110.364 161.805 108.645 165.628 112.39C165.771 112.533 165.915 112.676 166.037 112.82C169.615 117.137 166.405 125.731 158.84 132.013Z" fill="#F79C41"/>
<path d="M104.411 80.3467C96.7845 86.383 89.0352 89.7182 84.5983 84.1117C84.169 83.5797 83.8214 83.0067 83.5147 82.3929C80.693 76.7045 83.4738 68.4583 90.3847 62.995C98.0113 56.9587 108.419 54.1145 115.514 63.0973C115.554 63.1587 115.616 63.2201 115.636 63.2815C119.807 68.8266 111.976 74.3718 104.411 80.3467Z" fill="#F79C41"/>
<path d="M73.9456 164.65C72.8415 165.714 70.6537 166.307 67.2186 166.143C54.6235 165.591 40.9448 150.245 44.7683 145.313C44.8296 145.231 44.891 145.17 44.9523 145.109C48.919 140.627 58.856 148.689 63.9267 151.349C72.2894 155.728 76.8694 161.846 73.9456 164.65Z" fill="#F79C41"/>
<path d="M123.345 153.334C123.365 156.24 119.419 159.309 113.203 159.575C101.835 160.066 95.3533 157.877 93.8198 153.825C93.6563 153.396 93.554 152.945 93.4927 152.454C92.9406 147.523 103.348 148.362 108.828 148.076C119.112 147.523 123.324 150.347 123.345 153.334Z" fill="#F79C41"/>
<path d="M157.797 87.9585C156.55 89.8206 154.137 91.0892 151.009 91.0892C141.153 91.0892 128.006 83.9685 129.662 77.3797C129.846 76.6226 130.133 75.9679 130.46 75.4358C132.995 71.3435 139.395 73.3283 145.549 74.6378C157.858 77.257 160.496 83.9685 157.797 87.9585Z" fill="#F79C41"/>
<path d="M125.798 39.566C125.675 39.2796 125.614 38.9522 125.573 38.6043C125.328 35.8011 128.088 31.7087 133.466 30.2354C136.962 29.2737 141.685 29.3965 144.609 31.1971C145.897 31.9951 146.817 33.1001 147.165 34.6143C147.983 38.3793 127.536 43.9244 125.798 39.566Z" fill="#F79C41"/>
<path d="M69.6112 30.8493C68.916 31.2586 68.0981 31.1358 67.2189 30.2559C61.1872 24.2197 60.6556 14.357 63.927 12.7201C65.2152 12.0653 66.3397 11.8607 67.3007 11.963C73.8436 12.6996 73.128 28.7213 69.6112 30.8493Z" fill="#F79C41"/>
<path d="M172.887 65.3276C172.457 65.5322 171.946 65.5732 171.394 65.4299C169.104 64.8365 166.119 61.3171 165.219 56.0175C164.708 52.9073 166.262 49.9198 168.286 48.9786C170.535 47.9146 173.377 49.3878 174.522 56.0175C175.197 59.7825 175.095 64.2227 172.887 65.3276Z" fill="#F79C41"/>
<path d="M161.825 156.547C154.771 164.179 146.45 170.625 137.208 175.535C136.165 175.024 135.224 174.267 134.856 173.182C134.529 172.221 134.672 170.993 135.674 169.438C139.498 163.401 143.342 154.091 152.093 153.539C154.649 153.375 156.673 153.682 158.288 154.255C159.842 154.828 160.987 155.646 161.825 156.547Z" fill="#F79C41"/>
<path d="M118.07 183.147C110.239 185.296 101.999 186.421 93.4927 186.421C89.5874 186.421 85.7435 186.176 81.9813 185.705C81.9813 184.6 82.1858 183.413 82.8605 182.411C83.5148 181.449 84.5985 180.671 86.3774 180.385C92.9407 179.28 96.2326 174.901 105.536 175.454C110.361 175.74 113.735 178.093 115.841 180.283C116.884 181.388 117.599 182.411 118.07 183.147Z" fill="#F79C41"/>
<path d="M106.169 13.3953C105.699 15.728 101.753 16.5669 99.8515 15.687C99.4426 15.5029 99.1359 15.2369 98.9723 14.9095C97.8682 12.7201 105.086 8.62768 106.088 12.1676C106.21 12.6177 106.231 13.027 106.169 13.3953Z" fill="#F79C41"/>
<path d="M77.6257 136.556C75.1721 135.328 73.2501 134.366 73.8022 139.297C74.3542 144.229 78.1778 145.334 81.4697 145.334C84.7411 145.334 79.8135 137.66 77.6257 136.556Z" fill="#EF903A"/>
<path d="M32.1732 133.282C29.9855 132.729 29.9855 136.576 28.3497 140.402C26.714 144.229 28.9018 146.971 32.1732 146.971C35.4651 146.971 36.5488 134.366 32.1732 133.282Z" fill="#EF903A"/>
<path d="M22.3179 83.9479C20.2119 82.9862 17.9423 81.7585 17.3903 83.9479C16.8382 86.1373 21.7658 92.1736 24.5057 92.1736C27.2455 92.1736 28.3292 86.6898 22.3179 83.9479Z" fill="#EF903A"/>
<path d="M186.586 93.2785C186.586 98.7214 186.115 104.062 185.216 109.239C184.418 108.932 183.601 108.379 182.742 107.52C177.262 102.036 181.413 94.2607 182.742 91.6211C184.214 88.6746 185.686 88.9406 186.504 89.4522C186.565 90.7208 186.586 91.9894 186.586 93.2785Z" fill="#EF903A"/>
<path d="M130.194 99.2943C127.025 98.9055 125.266 101.484 130.194 103.673C135.122 105.883 134.57 99.8468 130.194 99.2943Z" fill="#EF903A"/>
<path d="M12.4626 74.6378C10.9905 75.3744 10.8269 78.4642 14.6504 77.9322C18.474 77.3797 15.7341 73.0008 12.4626 74.6378Z" fill="#EF903A"/>
<path d="M90.2212 36.2921C88.5855 36.8446 86.3977 38.4816 90.2212 39.034C94.0447 39.566 91.8569 35.7397 90.2212 36.2921Z" fill="#EF903A"/>
<path d="M99.5242 36.2921C97.5204 35.1258 97.3364 40.671 98.9721 42.8604C100.608 45.0498 106.088 40.1185 99.5242 36.2921Z" fill="#EF903A"/>
<path d="M117.047 166.164C115.861 166.43 115.411 168.353 118.682 169.458C121.974 170.543 121.974 165.059 117.047 166.164Z" fill="#EF903A"/>
<path d="M69.4065 175.474C67.7707 176.026 66.1146 177.111 69.4065 178.216C72.6984 179.3 71.0422 174.922 69.4065 175.474Z" fill="#EF903A"/>
<path d="M72.1462 94.9155C69.3655 95.0587 75.4381 98.7419 77.0739 99.2943C78.7096 99.8468 83.6372 94.363 72.1462 94.9155Z" fill="#EF903A"/>
<path d="M161.948 80.674C160.578 81.738 163.052 87.7947 165.239 87.2423C167.427 86.6898 166.875 76.8271 161.948 80.674Z" fill="#EF903A"/>
<path d="M117.906 119.081C117.661 120.022 117.354 120.943 117.047 121.762C115.453 126.038 106.027 127.716 103.532 125.752C103.471 125.711 103.409 125.649 103.348 125.588C101.16 123.399 103.287 117.894 104.452 115.173C106.088 111.346 114.308 108.605 117.047 109.689C119.256 110.61 118.969 115.091 117.906 119.081Z" fill="#F79C41"/>
<path d="M22.2977 55.1376C22.2159 54.2782 22.4 53.4597 22.8703 52.7231C25.4465 48.7944 35.6698 48.5284 45.0344 54.6669C54.3989 60.8055 58.2837 70.7295 55.7075 74.6582L55.687 74.6787C55.8301 72.2846 54.8283 68.9289 51.3319 64.2431C42.2127 52.0683 25.5896 47.8736 22.2977 55.1376Z" fill="#E27C37"/>
<path d="M83.2901 118.999C83.1674 119.756 82.9016 120.472 82.5131 121.127C82.2882 120.186 80.264 112.799 71.0426 109.709C61.4736 106.517 48.5922 103.673 40.9247 109.709C38.4711 111.633 37.4284 113.618 37.1217 115.418C36.3651 113.904 36.0789 112.37 36.3447 110.835C37.5102 104.123 48.7762 102.507 61.7394 104.778C74.7025 107.029 84.4555 112.288 83.2901 118.999Z" fill="#E27C37"/>
<path d="M98.4202 61.4808C88.2378 65.0003 83.944 74.9857 83.5147 82.3929C80.693 76.7045 83.4738 68.4583 90.3847 62.995C98.0113 56.9587 108.419 54.1145 115.514 63.0973C115.554 63.1587 115.616 63.2201 115.636 63.2815C112.569 60.9079 106.987 58.5343 98.4202 61.4808Z" fill="#E27C37"/>
<path d="M117.906 119.081C117.804 115.111 116.822 110.63 112.672 111.899C108.419 113.209 103.593 120.923 103.553 125.752C103.491 125.711 103.43 125.649 103.369 125.588C101.181 123.399 103.307 117.894 104.473 115.173C106.108 111.346 114.328 108.605 117.068 109.689C119.256 110.61 118.969 115.091 117.906 119.081Z" fill="#E27C37"/>
<path d="M157.797 87.9585C159.044 80.7355 147.472 78.4028 141.685 76.2952C135.96 74.2081 132.035 74.9448 130.44 75.4358C132.975 71.3435 139.375 73.3283 145.529 74.6378C157.859 77.257 160.496 83.9685 157.797 87.9585Z" fill="#E27C37"/>
<path d="M125.799 39.5661C125.676 39.2796 125.615 38.9522 125.574 38.6044C129.029 40.8961 137.882 39.0341 142.769 36.8242C146.266 35.2282 145.693 32.8955 144.609 31.2176C145.898 32.0156 146.818 33.1206 147.165 34.6348C147.983 38.3793 127.537 43.9245 125.799 39.5661Z" fill="#E27C37"/>
<path d="M69.6112 30.8493C68.916 31.2586 68.0981 31.1358 67.2189 30.2559C61.1872 24.2197 60.6556 14.357 63.927 12.7201C65.2152 12.0653 66.3397 11.8607 67.3007 11.963C65.9717 12.2086 63.927 13.3749 63.927 18.2039C63.927 23.7695 66.6055 28.3325 69.6112 30.8493Z" fill="#E27C37"/>
<path d="M106.169 13.3953C105.985 12.4541 105.249 11.5537 102.816 12.1676C100.833 12.6587 100.076 14.1729 99.8515 15.687C99.4426 15.5029 99.1359 15.2369 98.9723 14.9095C97.8682 12.7201 105.086 8.62768 106.088 12.1676C106.21 12.6177 106.231 13.027 106.169 13.3953Z" fill="#E27C37"/>
<path d="M73.9457 164.65C73.4754 161.703 70.7764 158.839 66.1146 156.281C60.0829 152.986 55.7073 149.712 51.8838 146.971C49.88 145.538 47.1197 145.149 44.9524 145.109C48.919 140.627 58.8561 148.689 63.9268 151.349C72.2895 155.728 76.8695 161.846 73.9457 164.65Z" fill="#E27C37"/>
<path d="M123.345 153.334C122.465 151.145 119.807 150.244 115.391 150.244H100.056C94.1879 150.244 93.8198 153.641 93.8198 153.805C93.6563 153.375 93.554 152.925 93.4927 152.434C92.9406 147.503 103.348 148.342 108.828 148.055C119.112 147.523 123.324 150.347 123.345 153.334Z" fill="#E27C37"/>
<path d="M115.841 180.303C116.884 181.367 117.599 182.411 118.07 183.147C110.239 185.296 101.999 186.421 93.4927 186.421C89.5874 186.421 85.7435 186.176 81.9813 185.705C81.9813 184.6 82.1858 183.413 82.8605 182.411C101.058 186.708 111.547 182.718 115.841 180.303Z" fill="#E27C37"/>
<path d="M161.825 156.547C154.771 164.179 146.449 170.625 137.207 175.535C136.165 175.024 135.224 174.267 134.856 173.182C150.13 167.453 156.734 157.079 158.288 154.276C159.842 154.828 160.987 155.646 161.825 156.547Z" fill="#E27C37"/>
<path d="M165.628 112.39C164.402 111.96 155.671 109.525 145.509 121.209C140.377 127.123 138.598 131.706 138.189 134.919C135.449 130.437 138.721 122.396 145.877 116.441C153.156 110.385 161.805 108.645 165.628 112.39Z" fill="#E27C37"/>
<path d="M171.394 65.4094C169.104 64.816 166.119 61.2966 165.219 55.997C164.708 52.8868 166.262 49.8993 168.286 48.9581C167.407 50.1244 166.589 51.9046 166.855 54.36C167.325 58.3296 168.818 62.2992 171.394 65.4094Z" fill="#E27C37"/>
<path d="M10.1729 134.837C9.53905 133.568 8.92565 132.258 8.35315 130.949C10.9703 128.575 13.5466 124.237 10.2751 117.383C6.22671 108.891 4.26384 101.586 0.665242 100.113C0.665242 100.051 0.665222 100.01 0.644775 99.9491C2.52586 99.7035 5.10214 100.563 6.98323 105.863C9.41637 112.758 20.7438 129.557 10.1729 134.837Z" fill="#E27C37"/>
<path opacity="0.35" d="M186.586 93.2785C186.586 98.7214 186.115 104.062 185.216 109.239C182.088 127.327 173.745 143.635 161.804 156.547C154.75 164.179 146.429 170.625 137.187 175.535C131.176 178.748 124.776 181.306 118.069 183.147C110.238 185.296 101.998 186.421 93.4924 186.421C89.5871 186.421 85.7432 186.176 81.981 185.705C50.4524 181.817 23.7901 162.133 10.1726 134.816C4.85652 124.176 1.52372 112.39 0.644519 99.9287C0.480946 97.7188 0.39917 95.4884 0.39917 93.2581C0.39917 79.2008 3.50706 65.88 9.06853 53.9303C9.96818 134.612 176.444 154.889 180.902 61.1329C184.153 70.0134 186.095 79.5077 186.504 89.4317C186.565 90.7208 186.586 91.9894 186.586 93.2785Z" fill="url(#paint1_linear_23_112)"/>
<path opacity="0.45" d="M149.843 167.433C145.877 170.461 141.644 173.182 137.207 175.556C131.196 178.768 124.796 181.326 118.09 183.168C110.259 185.316 102.019 186.442 93.513 186.442C89.6077 186.442 85.7637 186.196 82.0016 185.725C50.4729 181.838 23.8106 162.153 10.1931 134.837C4.87703 124.197 1.54426 112.41 0.665058 99.9491C0.501485 97.7393 0.419678 95.5089 0.419678 93.2786C0.419678 79.2212 3.52757 65.9005 9.08904 53.9508C14.0576 43.2697 21.0094 33.6935 29.4334 25.6929C3.46622 149.631 98.9723 166.798 149.843 167.433Z" fill="url(#paint2_linear_23_112)"/>
<path d="M186.586 93.2786C186.586 98.7214 186.116 104.062 185.216 109.239C184.725 112.022 184.132 114.764 183.417 117.465C180.186 42.533 129.479 -0.0686464 56.3003 7.85011C67.689 2.87787 80.2841 0.115509 93.4926 0.115509C133.629 0.115509 167.836 25.5292 180.902 61.1738C184.153 70.0543 186.095 79.5486 186.504 89.4726C186.565 90.7208 186.586 91.9895 186.586 93.2786Z" fill="url(#paint3_linear_23_112)"/>
<defs>
<radialGradient id="paint0_radial_23_112" cx="0" cy="0" r="1" gradientUnits="userSpaceOnUse" gradientTransform="translate(89.3916 43.9566) scale(142.146 142.253)">
<stop stop-color="#FFE46A"/>
<stop offset="1" stop-color="#FFA44A"/>
</radialGradient>
<linearGradient id="paint1_linear_23_112" x1="13.9812" y1="142.518" x2="178.656" y2="65.5323" gradientUnits="userSpaceOnUse">
<stop stop-color="#E27437"/>
<stop offset="1" stop-color="#E27437" stop-opacity="0.2"/>
</linearGradient>
<linearGradient id="paint2_linear_23_112" x1="75.511" y1="228.021" x2="74.6014" y2="-2.85473" gradientUnits="userSpaceOnUse">
<stop stop-color="#CC622E"/>
<stop offset="1" stop-color="#CC622E" stop-opacity="0.2"/>
</linearGradient>
<linearGradient id="paint3_linear_23_112" x1="176.299" y1="0.0743873" x2="119.618" y2="62.8295" gradientUnits="userSpaceOnUse">
<stop stop-color="#FFF2B6"/>
<stop offset="1" stop-color="#FFF49A" stop-opacity="0.2"/>
</linearGradient>
</defs>
</svg>
