<svg width="177" height="176" viewBox="0 0 177 176" fill="none" xmlns="http://www.w3.org/2000/svg">
<path d="M175.741 96.0936C171.783 139.041 135.979 175.776 88.4942 175.776C29.2044 175.776 -12.7387 117.97 4.96905 61.9021C11.0661 42.4714 23.9684 25.4313 41.5373 14.2287C45.1761 11.9215 49.0232 9.85055 53.037 8.05759C98.5772 -12.1654 152.159 9.86445 170.186 56.6622C175.241 69.8245 176.922 83.237 175.741 96.0936Z" fill="url(#paint0_radial_23_96)"/>
<path d="M129.757 165.435C117.465 172.024 103.41 175.762 88.4802 175.762C54.4674 175.762 24.9822 156.345 10.4965 127.978C16.6352 131.119 27.9543 136.109 41.1067 138.152C60.1894 141.112 83.2859 137.234 94.1467 142.794C112.257 152.065 115.202 162.711 129.757 165.435Z" fill="url(#paint1_linear_23_96)"/>
<path d="M56.0508 125.268C39.2041 126.421 15.8021 118.443 4.91354 114.287C2.34418 106.031 0.955322 97.2611 0.955322 88.1712C0.955322 84.905 1.13588 81.6804 1.48309 78.5115C6.23294 84.1405 17.1215 95.8851 30.8155 103.113C49.3566 112.911 78.7029 123.725 56.0508 125.268Z" fill="url(#paint2_linear_23_96)"/>
<path d="M163.575 133.218C160.284 138.708 156.395 143.809 152.02 148.437C140.784 145.365 128.257 139.806 118.105 131.202C100.036 115.9 97.508 109.047 55.8009 95.6489C26.7046 86.2949 11.3857 70.9365 4.78864 62.4999C6.84413 55.7728 9.69124 49.3793 13.2328 43.4444C21.4964 52.3814 39.8153 69.8941 63.0229 78.1223C94.9525 89.4638 100.091 88.4214 128.924 114.704C141.201 125.921 153.506 131.036 163.575 133.218Z" fill="url(#paint3_linear_23_96)"/>
<path d="M176.019 88.1712C176.019 97.9978 174.408 107.435 171.422 116.247C162.964 116.066 149.867 112.578 135.076 97.1916C109.327 70.3944 71.2307 65.2379 70.7169 56.4816C70.203 47.7253 109.855 54.9388 134.048 68.3374C151.45 77.9833 164.339 84.9466 175.95 84.6409C175.991 85.8084 176.019 86.9898 176.019 88.1712Z" fill="url(#paint4_linear_23_96)"/>
<path d="M52.7039 39.4832C42.2181 34.5907 30.0518 33.8124 29.538 37.9404C29.0241 42.0684 36.746 55.4531 50.6484 52.8818C64.5368 50.2966 60.4259 43.083 52.7039 39.4832Z" fill="url(#paint5_linear_23_96)"/>
<path d="M170.186 56.6623C157.187 48.7538 135.007 43.3332 100.591 35.3552C71.6337 28.642 58.7313 16.6889 53.037 8.05766C60.4118 4.79141 68.3143 2.49808 76.5918 1.37227C82.925 7.39051 95.994 15.6326 122.729 22.4709C137.909 26.3487 149.701 31.1438 158.728 35.8973C163.436 42.2213 167.297 49.1986 170.186 56.6623Z" fill="url(#paint6_linear_23_96)"/>
<path d="M128.382 144.601C123.868 142.113 108.299 133.259 118.09 151.3C121.937 158.389 138.687 150.272 128.382 144.601Z" fill="url(#paint7_linear_23_96)"/>
<path d="M107.271 135.316C105.16 135.469 106.244 139.959 108.299 140.473C110.369 140.987 114.493 134.802 107.271 135.316Z" fill="url(#paint8_linear_23_96)"/>
<path opacity="0.45" d="M171.408 116.289C169.395 122.251 166.756 127.908 163.575 133.218C160.284 138.708 156.395 143.809 152.02 148.437C145.59 155.234 138.076 160.988 129.771 165.435C117.479 172.024 103.424 175.762 88.4942 175.762C54.4814 175.762 24.9963 156.346 10.5106 127.978C8.27456 123.614 6.39963 119.041 4.92746 114.287C2.35809 106.031 0.969238 97.2611 0.969238 88.1712C0.969238 84.9049 1.14979 81.6804 1.49701 78.5114C2.09421 73.0074 3.20528 67.6424 4.78856 62.4859C4.84412 62.2913 4.91357 62.0829 4.96912 61.8883C17.6909 48.2256 41.7041 56.0646 53.7454 73.9943C71.8142 100.93 115.007 181.183 171.408 116.289Z" fill="url(#paint9_linear_23_96)"/>
<path opacity="0.55" d="M171.797 115.107C170.214 120.264 167.283 127.047 163.575 133.218C124.118 198.987 25.7739 185.436 4.49683 112.87C15.427 127.797 30.1071 139.097 49.6204 144.601C119.174 164.171 154.812 137.79 171.797 115.107Z" fill="url(#paint10_linear_23_96)"/>
<path d="M170.186 56.6623C175.255 69.8107 176.922 83.2371 175.741 96.0936C173.075 73.4244 161.853 36.5644 118.604 19.3853C86.9109 6.79287 60.3701 8.84991 41.5234 14.2288C45.1622 11.9216 49.0093 9.85063 53.0231 8.05766C98.5772 -12.1653 152.159 9.87842 170.186 56.6623Z" fill="url(#paint11_linear_23_96)"/>
<defs>
<radialGradient id="paint0_radial_23_96" cx="0" cy="0" r="1" gradientUnits="userSpaceOnUse" gradientTransform="translate(86.1647 54.1454) scale(87.5714 87.6376)">
<stop stop-color="#A0E2EA"/>
<stop offset="1" stop-color="#018ED9"/>
</radialGradient>
<linearGradient id="paint1_linear_23_96" x1="92.4151" y1="203.418" x2="19.7246" y2="18.7389" gradientUnits="userSpaceOnUse">
<stop stop-color="#7E31A6"/>
<stop offset="1" stop-color="#7731B1" stop-opacity="0.2"/>
</linearGradient>
<linearGradient id="paint2_linear_23_96" x1="71.3447" y1="211.712" x2="-1.34561" y2="27.0327" gradientUnits="userSpaceOnUse">
<stop stop-color="#7E31A6"/>
<stop offset="1" stop-color="#7731B1" stop-opacity="0.2"/>
</linearGradient>
<linearGradient id="paint3_linear_23_96" x1="121.206" y1="192.086" x2="48.5157" y2="7.40696" gradientUnits="userSpaceOnUse">
<stop stop-color="#7E31A6"/>
<stop offset="1" stop-color="#7731B1" stop-opacity="0.2"/>
</linearGradient>
<linearGradient id="paint4_linear_23_96" x1="164.338" y1="175.11" x2="91.6473" y2="-9.5698" gradientUnits="userSpaceOnUse">
<stop stop-color="#7E31A6"/>
<stop offset="1" stop-color="#7731B1" stop-opacity="0.2"/>
</linearGradient>
<linearGradient id="paint5_linear_23_96" x1="105.691" y1="198.193" x2="33.0011" y2="13.5136" gradientUnits="userSpaceOnUse">
<stop stop-color="#7E31A6"/>
<stop offset="1" stop-color="#7731B1" stop-opacity="0.2"/>
</linearGradient>
<linearGradient id="paint6_linear_23_96" x1="167.255" y1="173.961" x2="94.5648" y2="-10.7188" gradientUnits="userSpaceOnUse">
<stop stop-color="#7E31A6"/>
<stop offset="1" stop-color="#7731B1" stop-opacity="0.2"/>
</linearGradient>
<linearGradient id="paint7_linear_23_96" x1="138.653" y1="185.219" x2="65.9626" y2="0.540312" gradientUnits="userSpaceOnUse">
<stop stop-color="#7E31A6"/>
<stop offset="1" stop-color="#7731B1" stop-opacity="0.2"/>
</linearGradient>
<linearGradient id="paint8_linear_23_96" x1="129.061" y1="188.995" x2="56.3703" y2="4.31491" gradientUnits="userSpaceOnUse">
<stop stop-color="#7E31A6"/>
<stop offset="1" stop-color="#7731B1" stop-opacity="0.2"/>
</linearGradient>
<linearGradient id="paint9_linear_23_96" x1="69.8253" y1="178.465" x2="95.7146" y2="50.9638" gradientUnits="userSpaceOnUse">
<stop stop-color="#6D31A3"/>
<stop offset="1" stop-color="#B842B5" stop-opacity="0.3"/>
</linearGradient>
<linearGradient id="paint10_linear_23_96" x1="97.3178" y1="197.111" x2="87.5204" y2="108.486" gradientUnits="userSpaceOnUse">
<stop stop-color="#471AA3"/>
<stop offset="1" stop-color="#4C2EA3" stop-opacity="0.1"/>
</linearGradient>
<linearGradient id="paint11_linear_23_96" x1="198.16" y1="-54.9243" x2="101.273" y2="64.0324" gradientUnits="userSpaceOnUse">
<stop stop-color="#A4F6F6"/>
<stop offset="1" stop-color="#B5F4F9" stop-opacity="0"/>
</linearGradient>
</defs>
</svg>
