<svg width="800" height="602" viewBox="0 0 800 602" fill="none" xmlns="http://www.w3.org/2000/svg">
<g clip-path="url(#clip0_103_48)">
<path d="M760.57 0.178231C732.681 2.82333 717.669 36.0509 736.144 58.742C744.679 69.2687 758.934 74.4758 772.989 70.8528C780.517 68.9118 787.024 64.6043 791.665 58.9963C811.914 34.6379 792.837 -2.90202 760.57 0.178231Z" fill="url(#paint0_radial_103_48)"/>
<path d="M748.094 57.6811C733.057 46.6949 733.526 23.945 749.169 13.6238C759.784 6.59298 774.171 7.99132 783.238 17.4276C787.41 21.7644 790.116 27.4898 790.634 33.8067C792.554 56.7472 766.521 71.1999 748.094 57.6811Z" fill="url(#paint1_radial_103_48)"/>
<path d="M789.525 28.0569C785.27 28.0423 777.175 27.2991 767.752 22.845C757.337 17.9214 748.714 17.1 745.026 17.0023C746.291 15.7457 747.679 14.6114 749.173 13.6287C751.626 13.9807 756.252 15.0025 764.694 17.7894C774.698 21.0946 780.453 19.1682 783.248 17.4325C786.096 20.3954 788.274 24.0184 789.525 28.0569Z" fill="url(#paint2_linear_103_48)"/>
<path d="M780.912 15.2763C778.577 16.2053 773.985 17.0071 766.066 14.7189C759.134 12.7143 755.026 11.9369 752.725 11.6485C754.102 11.0129 755.539 10.4946 757.029 10.0986C759.051 10.6413 761.738 11.4676 765.299 12.729C772.368 15.2323 776.892 14.895 779.452 14.1616C779.955 14.5136 780.443 14.8852 780.912 15.2763Z" fill="url(#paint3_linear_103_48)"/>
<path d="M776.867 12.5286C774.19 12.7926 769.051 12.7437 765.607 9.25275C769.672 9.5021 773.492 10.6609 776.867 12.5286Z" fill="url(#paint4_linear_103_48)"/>
<path d="M790.732 36.0265C790.732 36.3834 790.722 36.7403 790.712 37.0972C787.131 37.5079 779.774 37.1119 767.908 30.9661C752.901 23.197 745.324 22.757 740.287 23.3584C740.575 22.8205 740.878 22.2925 741.206 21.7791C744.557 21.3635 752.051 21.4809 764.542 26.9764C779.979 33.7676 784.899 35.2393 790.644 33.797C790.697 34.5353 790.732 35.2784 790.732 36.0265Z" fill="url(#paint5_linear_103_48)"/>
<path d="M759.325 31.1225C749.931 26.7857 741.294 28.2232 738.03 29.0397C737.512 30.9563 737.205 32.956 737.131 35.0193C755.187 31.7483 768.411 41.874 763.922 42.6221C759.325 43.3897 757.336 44.0009 750.136 46.3037C744.879 47.9856 740.678 46.3917 738.802 45.409C739.525 47.3549 740.468 49.1933 741.606 50.8948C750.927 54.3808 758.377 50.6943 768.064 47.6825C775.592 45.3405 782.92 47.7998 786.99 49.7164C788.357 47.4136 789.388 44.8858 790.023 42.2065C776.97 44.6071 770.375 36.222 759.325 31.1225Z" fill="url(#paint6_linear_103_48)"/>
<path d="M753.658 42.006C750.903 42.1576 749.369 42.9252 745.079 43.5412C742.964 43.8444 740.219 43.3652 737.976 42.7981C737.546 41.1504 737.273 39.4342 737.165 37.679C749.906 35.6157 756.252 41.8593 753.658 42.006Z" fill="url(#paint7_linear_103_48)"/>
<path d="M783.233 54.6351C782.608 55.2853 781.953 55.9014 781.264 56.4832C777.996 55.4614 774.293 54.8209 770.351 55.036C761.259 55.5347 755.817 58.6687 748.089 57.6811C747.63 57.3437 747.18 56.9966 746.745 56.6299C749.901 57.0553 755.568 56.8499 765.446 54.1168C772.383 52.2002 778.397 52.9385 783.233 54.6351Z" fill="url(#paint8_linear_103_48)"/>
<path d="M777.073 59.4119C773.189 61.6023 768.699 62.8539 763.922 62.8539C762.207 62.8539 760.531 62.6926 758.91 62.3846C764.664 56.0041 773.052 57.9451 777.073 59.4119Z" fill="url(#paint9_linear_103_48)"/>
<path opacity="0.55" d="M788.094 47.6385C787.752 48.3474 787.38 49.0368 786.985 49.7116C785.925 51.4961 784.664 53.1487 783.233 54.6351C782.608 55.2853 781.953 55.9014 781.264 56.4832C779.965 57.5882 778.563 58.5709 777.068 59.4119C773.184 61.6023 768.695 62.8539 763.917 62.8539C762.202 62.8539 760.526 62.6926 758.905 62.3846C754.918 61.6316 751.245 59.9937 748.094 57.6811C747.634 57.3437 747.185 56.9966 746.75 56.6299C744.772 54.9773 743.033 53.046 741.601 50.8899C740.468 49.1884 739.525 47.35 738.797 45.4041C738.48 44.5534 738.206 43.6831 737.972 42.7932C737.542 41.1455 737.268 39.4294 737.161 37.6741C737.141 37.371 737.126 37.0679 737.122 36.7647C737.112 36.5203 737.112 36.2709 737.112 36.0264C737.112 35.6891 737.117 35.3517 737.131 35.0144C737.209 32.956 737.517 30.9514 738.03 29.0348C738.568 27.0399 739.325 25.1429 740.282 23.3583C740.571 22.8205 740.873 22.2925 741.201 21.7791C741.513 21.2853 741.836 20.8012 742.178 20.327C745.959 22.0675 749.838 25.7834 752.661 33.1858C756.716 43.8151 763.99 50.1956 772.231 51.4326C777.327 52.2051 782.793 51.0072 788.094 47.6385Z" fill="url(#paint10_linear_103_48)"/>
<path opacity="0.5" d="M790.649 38.1387C790.541 39.5223 790.326 40.8816 790.014 42.2017C789.564 44.0987 788.919 45.9224 788.094 47.6385C787.752 48.3475 787.38 49.0369 786.985 49.7116C785.925 51.4962 784.664 53.1488 783.233 54.6351C782.608 55.2854 781.953 55.9014 781.264 56.4832C779.965 57.5882 778.563 58.571 777.068 59.4119C773.184 61.6023 768.695 62.854 763.917 62.854C762.202 62.854 760.527 62.6926 758.905 62.3846C754.918 61.6317 751.245 59.9937 748.094 57.6811C747.635 57.3438 747.185 56.9966 746.75 56.6299C744.772 54.9773 743.033 53.0461 741.601 50.8899C740.468 49.1884 739.525 47.3501 738.797 45.4041C738.48 44.5534 738.206 43.6831 737.972 42.7933C737.542 41.1456 737.268 39.4294 737.161 37.6742C737.141 37.371 737.126 37.0679 737.122 36.7648C739.716 42.5635 744.405 48.1617 752.735 51.3593C759.852 54.0875 766.462 53.5399 772.227 51.4375C780.39 48.4746 786.853 42.4119 790.649 38.1387Z" fill="url(#paint11_linear_103_48)" stroke="url(#paint12_radial_103_48)" stroke-miterlimit="10"/>
<path d="M790.653 38.08C790.644 37.5128 790.302 24.2775 774.415 16.2102C755.519 6.61257 743.404 18.8162 743.13 19.0949C753.262 6.62234 772.075 5.81072 783.238 17.4325C788.553 22.9525 791.23 30.4185 790.653 38.08Z" fill="url(#paint13_linear_103_48)"/>
</g>
<g clip-path="url(#clip1_103_48)">
<path d="M631.833 525.191C602.005 528.019 585.952 563.553 605.71 587.821C614.837 599.076 630.082 604.647 645.114 600.774C653.165 598.696 660.124 594.088 665.086 588.094C686.739 562.042 666.344 521.896 631.833 525.191Z" fill="url(#paint14_radial_103_48)"/>
<path d="M665.247 563.499C665.247 564.378 665.209 565.246 665.134 566.108C665.065 566.912 664.963 567.705 664.829 568.487C664.701 569.253 664.54 570.008 664.358 570.747C663.817 572.906 663.041 574.974 662.062 576.914C661.746 577.535 661.409 578.146 661.055 578.746C660.391 579.855 659.663 580.921 658.86 581.933C658.454 582.447 658.036 582.946 657.597 583.428C654.776 586.562 651.297 589.09 647.384 590.799C647.094 590.928 646.8 591.046 646.506 591.163C645.633 591.512 644.744 591.817 643.834 592.085C643.187 592.272 642.534 592.438 641.87 592.583C639.82 593.028 637.689 593.263 635.505 593.263C627.069 593.263 619.457 589.749 614.039 584.103C613.397 583.433 612.787 582.731 612.209 582.003C611.031 580.524 609.998 578.928 609.114 577.24C608.89 576.812 608.675 576.372 608.472 575.928C607.728 574.315 607.128 572.628 606.684 570.876C606.079 568.514 605.758 566.039 605.758 563.489C605.758 561.919 605.881 560.381 606.111 558.881C606.202 558.303 606.304 557.735 606.427 557.173C606.561 556.54 606.722 555.919 606.893 555.303C607.214 554.173 607.605 553.064 608.055 551.992C608.868 550.048 609.885 548.205 611.074 546.496C611.802 545.451 612.594 544.455 613.445 543.512C615.056 541.733 616.876 540.153 618.868 538.803C618.932 538.76 618.996 538.717 619.06 538.674C620.388 537.791 621.79 537.014 623.257 536.349C626.169 535.032 629.328 534.169 632.647 533.858C633.583 533.767 634.531 533.724 635.489 533.724C638.348 533.724 641.115 534.132 643.733 534.882C644.846 535.203 645.933 535.583 646.987 536.028C647.384 536.194 647.774 536.366 648.16 536.548C649.766 537.303 651.291 538.203 652.726 539.221C654.278 540.33 655.718 541.578 657.03 542.955C659.546 545.601 661.58 548.703 662.993 552.132C663.17 552.56 663.341 552.999 663.496 553.439C663.999 554.842 664.401 556.294 664.69 557.789C665.059 559.648 665.247 561.555 665.247 563.499Z" fill="url(#paint15_radial_103_48)"/>
<path d="M665.247 563.499C665.247 566.001 664.936 568.428 664.358 570.747C649.503 564.372 623.958 576.105 606.684 570.881C606.079 568.519 605.758 566.044 605.758 563.494C605.758 561.924 605.881 560.387 606.111 558.887C636.469 569.655 647.507 554.671 664.701 557.805C665.059 559.648 665.247 561.555 665.247 563.499Z" fill="url(#paint16_linear_103_48)"/>
<path d="M663.512 553.455C647.335 550.728 628.509 561.892 606.904 555.308C607.225 554.178 607.615 553.069 608.065 551.998C625.602 558.828 646.746 550.128 663.009 552.148C663.186 552.581 663.357 553.015 663.512 553.455Z" fill="url(#paint17_linear_103_48)"/>
<path d="M657.046 542.976C640.034 553.482 618.546 548.676 611.084 546.507C611.812 545.462 612.605 544.465 613.456 543.523C634.697 548.939 647.962 542.366 652.742 539.242C654.294 540.346 655.734 541.599 657.046 542.976Z" fill="url(#paint18_linear_103_48)"/>
<path d="M648.176 536.564C641.024 541.192 631.34 538.096 618.878 538.814C620.265 537.876 621.732 537.057 623.268 536.36C630.81 536.687 641.458 539.194 647.003 536.039C647.4 536.205 647.79 536.382 648.176 536.564Z" fill="url(#paint19_linear_103_48)"/>
<path d="M643.754 534.892C641.741 535.873 638.005 536.708 632.668 533.869C633.605 533.778 634.552 533.735 635.51 533.735C638.369 533.735 641.131 534.137 643.754 534.892Z" fill="url(#paint20_linear_103_48)"/>
<path d="M662.062 576.914C661.746 577.535 661.408 578.146 661.055 578.746C648.277 572.955 624.692 579.394 609.12 577.251C608.895 576.822 608.681 576.383 608.477 575.939C628.889 578.462 651.023 570.142 662.062 576.914Z" fill="url(#paint21_linear_103_48)"/>
<path d="M643.834 592.08C643.187 592.267 642.533 592.433 641.87 592.578C636.377 591.683 619.408 582.056 614.039 584.103C613.397 583.433 612.787 582.731 612.208 582.003C624.135 581.885 636.731 591.512 643.834 592.08Z" fill="url(#paint22_linear_103_48)"/>
<path d="M657.602 583.428C654.781 586.562 651.302 589.09 647.389 590.799C641.779 589.101 638.54 585.78 636.581 584.842C633.717 583.465 632.855 582.367 643.888 581.542C649.509 581.113 654.278 582.233 657.602 583.428Z" fill="url(#paint23_linear_103_48)"/>
<path opacity="0.45" d="M664.834 568.487C662.87 580.262 653.834 589.963 641.875 592.583C620.64 597.206 601.856 578.285 606.438 557.183C608.9 561.844 614.376 566.815 626.324 568.669C644.407 571.465 656.184 566.478 664.834 568.487Z" fill="url(#paint24_linear_103_48)"/>
<path opacity="0.55" d="M658.384 582.522C658.132 582.828 657.87 583.133 657.602 583.428C654.781 586.562 651.302 589.09 647.389 590.799C647.1 590.928 646.805 591.046 646.511 591.163C645.638 591.512 644.75 591.817 643.84 592.085C643.192 592.272 642.539 592.438 641.875 592.583C639.825 593.028 637.694 593.263 635.51 593.263C627.074 593.263 619.462 589.749 614.045 584.103C613.493 583.524 612.963 582.929 612.46 582.308C617.347 584.146 624.44 584.515 634.723 581.971C643.759 579.731 651.645 580.342 658.384 582.522Z" fill="url(#paint25_linear_103_48)"/>
<path d="M665.247 563.499C665.247 564.378 665.209 565.246 665.134 566.108C665.049 559.396 662.731 551.365 654.589 544.374C638.958 530.95 623.102 536.837 619.076 538.685C620.404 537.801 621.806 537.024 623.273 536.36C626.185 535.042 629.344 534.18 632.663 533.869C633.599 533.778 634.547 533.735 635.505 533.735C638.364 533.735 641.131 534.142 643.749 534.892C644.862 535.214 645.949 535.594 647.003 536.039C647.399 536.205 647.79 536.376 648.176 536.558C649.782 537.314 651.307 538.214 652.742 539.232C654.294 540.341 655.734 541.589 657.046 542.966C659.562 545.612 661.596 548.714 663.009 552.142C663.186 552.571 663.357 553.01 663.512 553.449C664.015 554.853 664.417 556.305 664.706 557.799C665.059 559.648 665.247 561.555 665.247 563.499Z" fill="url(#paint26_linear_103_48)"/>
</g>
<g clip-path="url(#clip2_103_48)">
<path d="M331.072 458.126C311.316 460.001 300.682 483.536 313.768 499.608C313.768 499.608 313.768 499.608 313.766 499.608C319.813 507.066 329.91 510.753 339.865 508.188C345.198 506.811 349.807 503.759 353.094 499.79C367.439 482.534 353.929 455.947 331.072 458.126Z" fill="url(#paint27_radial_103_48)"/>
<path d="M351.569 485.206C350.735 494.257 343.19 501.998 333.183 501.998C320.688 501.998 311.848 489.816 315.58 478C316.865 473.905 319.584 470.314 323.287 467.953C324.054 467.467 324.864 467.03 325.71 466.653C335.308 462.391 346.6 467.033 350.399 476.896C351.464 479.67 351.818 482.496 351.569 485.206Z" fill="url(#paint28_radial_103_48)"/>
<path d="M341.878 499.819C339.288 501.207 336.326 501.995 333.18 501.995C326.012 501.995 319.798 497.903 316.745 491.925C318.039 492.587 320.424 493.639 323.196 494.069C327.218 494.693 332.085 493.876 334.374 495.047C338.191 497.001 338.811 499.245 341.878 499.819Z" fill="url(#paint29_linear_103_48)"/>
<path d="M326.345 491.354C322.795 491.597 317.863 489.916 315.569 489.04C315.027 487.3 314.734 485.452 314.734 483.536C314.734 482.848 314.772 482.168 314.846 481.5C315.847 482.687 318.141 485.162 321.027 486.685C324.935 488.75 331.119 491.029 326.345 491.354Z" fill="url(#paint30_linear_103_48)"/>
<path d="M349.006 493.029C348.312 494.186 347.492 495.261 346.57 496.237C344.202 495.589 341.562 494.418 339.423 492.605C335.615 489.38 335.082 487.936 326.293 485.112C320.161 483.141 316.933 479.904 315.542 478.126C315.975 476.708 316.575 475.361 317.322 474.11C319.063 475.994 322.924 479.684 327.815 481.418C334.544 483.809 335.627 483.589 341.703 489.128C344.29 491.492 346.884 492.57 349.006 493.029Z" fill="url(#paint31_linear_103_48)"/>
<path d="M351.628 483.536C351.628 485.607 351.289 487.596 350.659 489.453C348.877 489.415 346.117 488.68 342.999 485.437C337.573 479.79 329.545 478.703 329.436 476.858C329.328 475.012 337.684 476.533 342.783 479.356C346.45 481.389 349.166 482.857 351.613 482.792C351.622 483.038 351.628 483.287 351.628 483.536Z" fill="url(#paint32_linear_103_48)"/>
<path d="M325.64 473.275C323.43 472.244 320.866 472.08 320.758 472.95C320.65 473.82 322.277 476.641 325.207 476.099C328.134 475.554 327.267 474.034 325.64 473.275Z" fill="url(#paint33_linear_103_48)"/>
<path d="M350.399 476.896C347.659 475.229 342.985 474.087 335.732 472.405C329.629 470.991 326.91 468.472 325.71 466.653C327.264 465.964 328.93 465.481 330.674 465.244C332.009 466.512 334.763 468.249 340.397 469.69C343.597 470.507 346.082 471.518 347.984 472.52C348.976 473.852 349.79 475.323 350.399 476.896Z" fill="url(#paint34_linear_103_48)"/>
<path d="M341.589 495.428C340.637 494.904 337.356 493.038 339.42 496.84C340.231 498.334 343.76 496.623 341.589 495.428Z" fill="url(#paint35_linear_103_48)"/>
<path d="M337.14 493.472C336.695 493.504 336.923 494.45 337.356 494.558C337.793 494.667 338.662 493.363 337.14 493.472Z" fill="url(#paint36_linear_103_48)"/>
<path opacity="0.45" d="M350.656 489.462C350.232 490.718 349.676 491.91 349.006 493.029C348.312 494.186 347.492 495.261 346.57 496.237C345.215 497.669 343.632 498.882 341.881 499.819C339.291 501.207 336.329 501.995 333.183 501.995C326.015 501.995 319.801 497.903 316.748 491.925C316.277 491.005 315.882 490.042 315.571 489.04C315.03 487.3 314.737 485.452 314.737 483.536C314.737 482.848 314.775 482.168 314.849 481.5C314.974 480.34 315.209 479.21 315.542 478.123C315.554 478.082 315.569 478.038 315.58 477.997C318.261 475.118 323.322 476.77 325.86 480.548C329.667 486.225 338.77 503.138 350.656 489.462Z" fill="url(#paint37_linear_103_48)"/>
<path opacity="0.55" d="M350.738 489.213C350.405 490.299 349.787 491.729 349.005 493.029C340.69 506.89 319.965 504.034 315.481 488.741C317.784 491.887 320.878 494.268 324.99 495.428C339.648 499.552 347.159 493.993 350.738 489.213Z" fill="url(#paint38_linear_103_48)"/>
<path d="M350.399 476.896C351.467 479.667 351.818 482.496 351.569 485.206C351.007 480.428 348.643 472.66 339.528 469.04C332.849 466.386 327.256 466.82 323.284 467.953C324.051 467.467 324.861 467.03 325.707 466.653C335.308 462.391 346.6 467.036 350.399 476.896Z" fill="url(#paint39_linear_103_48)"/>
</g>
<g clip-path="url(#clip3_103_48)">
<path d="M371.904 274.109C354.86 275.727 345.688 296.031 356.976 309.898C362.191 316.331 370.904 319.514 379.494 317.298C384.096 316.11 388.072 313.48 390.905 310.055C403.28 295.168 391.626 272.226 371.904 274.109Z" fill="url(#paint40_radial_103_48)"/>
<path d="M390.995 295.96C390.995 296.953 390.909 297.928 390.745 298.873C390.655 299.382 390.547 299.882 390.416 300.375C389.692 303.08 388.318 305.516 386.474 307.511C385.806 308.235 385.074 308.9 384.287 309.498C383.563 310.051 382.79 310.548 381.98 310.981C380.882 311.568 379.714 312.035 378.489 312.371C377.06 312.763 375.555 312.969 374.002 312.969C373.289 312.969 372.588 312.924 371.901 312.838C366.144 312.128 361.277 308.534 358.79 303.547C357.82 301.604 357.211 299.453 357.051 297.177C357.021 296.774 357.006 296.367 357.006 295.96C357.006 293.393 357.573 290.961 358.589 288.779C359.496 286.829 360.765 285.081 362.303 283.62C363.725 282.268 365.383 281.158 367.208 280.363C369.288 279.455 371.587 278.951 373.999 278.951C381.326 278.951 387.572 283.59 389.957 290.098C390.551 291.719 390.905 293.453 390.98 295.265C390.991 295.493 390.995 295.724 390.995 295.96Z" fill="url(#paint41_radial_103_48)"/>
<path d="M358.787 303.547C358.671 303.315 358.559 303.076 358.455 302.837C357.682 301.093 357.197 299.199 357.051 297.207C357.051 297.196 357.051 297.189 357.047 297.177C357.391 297.133 357.861 297.29 358.204 298.257C358.649 299.516 360.717 302.583 358.787 303.547Z" fill="#F79C41"/>
<path d="M372.136 300.655C372.114 300.794 372.065 300.924 371.994 301.044C371.453 302.015 369.568 302.493 367.466 302.131C365.637 301.814 364.177 300.947 363.707 300.005C363.569 299.729 363.517 299.449 363.565 299.169C363.778 297.943 365.835 297.648 368.201 298.063C370.568 298.47 372.349 299.43 372.136 300.655Z" fill="#F79C41"/>
<path d="M367.1 292.556L367.096 292.56C366.626 293.27 365.159 292.62 363.453 291.503C362.061 290.591 361.068 289.683 361 288.992C360.986 288.835 361.019 288.686 361.105 288.552C361.575 287.834 363.442 287.786 365.152 288.906C366.861 290.027 367.571 291.839 367.1 292.556Z" fill="#F79C41"/>
<path d="M385.929 303.031C384.552 304.182 382.902 304.477 382.249 303.689C382.215 303.648 382.185 303.607 382.159 303.562C381.659 302.744 382.256 301.276 383.563 300.188C384.892 299.079 386.471 298.765 387.169 299.449C387.195 299.475 387.221 299.501 387.243 299.527C387.897 300.316 387.311 301.885 385.929 303.031Z" fill="#F79C41"/>
<path d="M375.992 293.599C374.6 294.701 373.185 295.31 372.375 294.286C372.296 294.189 372.233 294.084 372.177 293.972C371.662 292.934 372.169 291.428 373.431 290.431C374.824 289.329 376.724 288.809 378.019 290.449C378.027 290.461 378.038 290.472 378.041 290.483C378.803 291.495 377.373 292.508 375.992 293.599Z" fill="#F79C41"/>
<path d="M370.43 308.99C370.228 309.184 369.829 309.293 369.202 309.263C366.902 309.162 364.405 306.36 365.103 305.46C365.114 305.445 365.125 305.434 365.137 305.422C365.861 304.604 367.675 306.076 368.601 306.562C370.128 307.361 370.964 308.478 370.43 308.99Z" fill="#F79C41"/>
<path d="M379.449 306.924C379.453 307.455 378.732 308.015 377.597 308.064C375.522 308.153 374.338 307.753 374.058 307.014C374.029 306.935 374.01 306.853 373.999 306.763C373.898 305.863 375.798 306.016 376.798 305.964C378.676 305.863 379.445 306.379 379.449 306.924Z" fill="#F79C41"/>
<path d="M385.739 294.988C385.511 295.328 385.071 295.56 384.5 295.56C382.7 295.56 380.3 294.26 380.602 293.057C380.636 292.919 380.688 292.799 380.748 292.702C381.211 291.955 382.379 292.317 383.503 292.556C385.75 293.034 386.232 294.26 385.739 294.988Z" fill="#F79C41"/>
<path d="M379.897 286.153C379.874 286.101 379.863 286.041 379.856 285.978C379.811 285.466 380.315 284.719 381.297 284.45C381.935 284.274 382.797 284.297 383.331 284.625C383.566 284.771 383.734 284.973 383.798 285.249C383.947 285.937 380.214 286.949 379.897 286.153Z" fill="#F79C41"/>
<path d="M369.639 284.562C369.512 284.636 369.362 284.614 369.202 284.453C368.101 283.351 368.004 281.551 368.601 281.252C368.836 281.132 369.041 281.095 369.217 281.114C370.411 281.248 370.281 284.173 369.639 284.562Z" fill="#F79C41"/>
<path d="M388.494 290.857C388.415 290.894 388.322 290.901 388.221 290.875C387.803 290.767 387.258 290.124 387.094 289.157C387.001 288.589 387.284 288.043 387.654 287.872C388.065 287.677 388.583 287.946 388.792 289.157C388.916 289.844 388.897 290.655 388.494 290.857Z" fill="#F79C41"/>
<path d="M386.474 307.511C385.186 308.904 383.667 310.081 381.98 310.977C381.789 310.884 381.618 310.746 381.551 310.548C381.491 310.372 381.517 310.148 381.7 309.864C382.398 308.762 383.1 307.062 384.697 306.961C385.164 306.932 385.534 306.988 385.829 307.092C386.112 307.197 386.321 307.346 386.474 307.511Z" fill="#F79C41"/>
<path d="M378.486 312.367C377.056 312.759 375.552 312.965 373.999 312.965C373.286 312.965 372.584 312.92 371.897 312.834C371.897 312.632 371.934 312.416 372.058 312.233C372.177 312.057 372.375 311.915 372.7 311.863C373.898 311.661 374.499 310.862 376.197 310.962C377.078 311.015 377.694 311.444 378.079 311.844C378.269 312.046 378.4 312.233 378.486 312.367Z" fill="#F79C41"/>
<path d="M376.313 281.375C376.227 281.801 375.507 281.954 375.16 281.794C375.085 281.76 375.029 281.711 374.999 281.652C374.798 281.252 376.115 280.505 376.298 281.151C376.321 281.233 376.324 281.308 376.313 281.375Z" fill="#F79C41"/>
<path d="M371.102 303.861C370.654 303.637 370.303 303.461 370.404 304.361C370.504 305.262 371.203 305.463 371.804 305.463C372.401 305.463 371.501 304.062 371.102 303.861Z" fill="#EF903A"/>
<path d="M362.803 303.263C362.404 303.162 362.404 303.864 362.105 304.563C361.807 305.262 362.206 305.762 362.803 305.762C363.404 305.762 363.602 303.461 362.803 303.263Z" fill="#EF903A"/>
<path d="M361.004 294.256C360.62 294.08 360.205 293.856 360.104 294.256C360.004 294.656 360.903 295.758 361.404 295.758C361.904 295.758 362.102 294.757 361.004 294.256Z" fill="#EF903A"/>
<path d="M390.995 295.96C390.995 296.953 390.909 297.928 390.745 298.873C390.599 298.817 390.45 298.717 390.293 298.56C389.293 297.558 390.05 296.139 390.293 295.657C390.562 295.119 390.831 295.168 390.98 295.261C390.991 295.493 390.995 295.724 390.995 295.96Z" fill="#EF903A"/>
<path d="M380.699 297.058C380.121 296.987 379.8 297.458 380.699 297.857C381.599 298.261 381.498 297.159 380.699 297.058Z" fill="#EF903A"/>
<path d="M359.205 292.556C358.936 292.691 358.906 293.255 359.604 293.158C360.302 293.057 359.802 292.257 359.205 292.556Z" fill="#EF903A"/>
<path d="M373.401 285.555C373.103 285.656 372.703 285.955 373.401 286.056C374.099 286.153 373.7 285.455 373.401 285.555Z" fill="#EF903A"/>
<path d="M375.1 285.555C374.734 285.342 374.7 286.355 374.999 286.755C375.298 287.154 376.298 286.254 375.1 285.555Z" fill="#EF903A"/>
<path d="M378.299 309.266C378.082 309.315 378 309.666 378.598 309.868C379.199 310.066 379.199 309.065 378.299 309.266Z" fill="#EF903A"/>
<path d="M369.601 310.966C369.302 311.067 369 311.265 369.601 311.467C370.202 311.665 369.9 310.865 369.601 310.966Z" fill="#EF903A"/>
<path d="M370.101 296.258C369.594 296.285 370.702 296.957 371.001 297.058C371.3 297.159 372.199 296.158 370.101 296.258Z" fill="#EF903A"/>
<path d="M386.497 293.658C386.247 293.853 386.698 294.958 387.098 294.857C387.497 294.757 387.396 292.956 386.497 293.658Z" fill="#EF903A"/>
<path d="M378.456 300.67C378.411 300.842 378.355 301.01 378.299 301.16C378.008 301.941 376.287 302.247 375.832 301.888C375.82 301.881 375.809 301.87 375.798 301.858C375.399 301.459 375.787 300.454 376 299.957C376.298 299.258 377.799 298.758 378.299 298.956C378.702 299.124 378.65 299.942 378.456 300.67Z" fill="#F79C41"/>
<path d="M361 288.996C360.986 288.839 361.019 288.69 361.105 288.555C361.575 287.838 363.442 287.789 365.152 288.91C366.861 290.031 367.571 291.843 367.1 292.56L367.096 292.564C367.123 292.127 366.94 291.514 366.301 290.659C364.636 288.436 361.601 287.67 361 288.996Z" fill="#E27C37"/>
<path d="M372.136 300.655C372.114 300.794 372.065 300.924 371.994 301.044C371.953 300.872 371.583 299.524 369.9 298.959C368.153 298.377 365.801 297.857 364.401 298.959C363.953 299.311 363.763 299.673 363.707 300.002C363.569 299.725 363.517 299.445 363.565 299.165C363.778 297.94 365.835 297.644 368.201 298.059C370.568 298.47 372.349 299.43 372.136 300.655Z" fill="#E27C37"/>
<path d="M374.898 290.154C373.039 290.797 372.255 292.62 372.177 293.972C371.662 292.934 372.169 291.428 373.431 290.431C374.824 289.329 376.724 288.809 378.019 290.449C378.027 290.461 378.038 290.472 378.041 290.483C377.482 290.05 376.462 289.616 374.898 290.154Z" fill="#E27C37"/>
<path d="M378.456 300.67C378.437 299.946 378.258 299.128 377.5 299.359C376.724 299.598 375.843 301.007 375.835 301.888C375.824 301.881 375.813 301.87 375.802 301.858C375.402 301.459 375.791 300.454 376.003 299.957C376.302 299.258 377.803 298.758 378.303 298.956C378.702 299.124 378.65 299.942 378.456 300.67Z" fill="#E27C37"/>
<path d="M385.739 294.988C385.967 293.67 383.854 293.244 382.797 292.859C381.752 292.478 381.035 292.612 380.744 292.702C381.207 291.955 382.375 292.317 383.499 292.556C385.75 293.034 386.232 294.26 385.739 294.988Z" fill="#E27C37"/>
<path d="M379.897 286.153C379.874 286.101 379.863 286.041 379.856 285.978C380.487 286.396 382.103 286.056 382.995 285.653C383.634 285.361 383.529 284.935 383.331 284.629C383.566 284.775 383.734 284.976 383.798 285.253C383.947 285.936 380.214 286.949 379.897 286.153Z" fill="#E27C37"/>
<path d="M369.639 284.562C369.512 284.636 369.362 284.614 369.202 284.453C368.101 283.351 368.004 281.551 368.601 281.252C368.836 281.132 369.041 281.095 369.217 281.114C368.974 281.158 368.601 281.371 368.601 282.253C368.601 283.269 369.09 284.102 369.639 284.562Z" fill="#E27C37"/>
<path d="M376.313 281.375C376.28 281.203 376.145 281.039 375.701 281.151C375.339 281.241 375.201 281.517 375.16 281.794C375.085 281.76 375.029 281.711 374.999 281.652C374.798 281.252 376.115 280.505 376.298 281.151C376.321 281.233 376.324 281.308 376.313 281.375Z" fill="#E27C37"/>
<path d="M370.43 308.99C370.344 308.452 369.851 307.929 369 307.462C367.899 306.861 367.1 306.263 366.402 305.762C366.036 305.501 365.532 305.43 365.137 305.422C365.861 304.604 367.675 306.076 368.601 306.562C370.128 307.361 370.964 308.478 370.43 308.99Z" fill="#E27C37"/>
<path d="M379.449 306.924C379.288 306.524 378.803 306.36 377.997 306.36H375.197C374.126 306.36 374.058 306.98 374.058 307.01C374.029 306.932 374.01 306.849 373.999 306.76C373.898 305.859 375.798 306.013 376.798 305.96C378.676 305.863 379.445 306.379 379.449 306.924Z" fill="#E27C37"/>
<path d="M378.079 311.848C378.269 312.042 378.4 312.233 378.486 312.367C377.056 312.759 375.552 312.965 373.999 312.965C373.286 312.965 372.584 312.92 371.897 312.834C371.897 312.632 371.934 312.416 372.058 312.233C375.38 313.017 377.295 312.289 378.079 311.848Z" fill="#E27C37"/>
<path d="M386.474 307.511C385.186 308.904 383.667 310.081 381.98 310.977C381.789 310.884 381.618 310.746 381.55 310.548C384.339 309.502 385.545 307.608 385.828 307.096C386.112 307.197 386.321 307.346 386.474 307.511Z" fill="#E27C37"/>
<path d="M387.169 299.449C386.945 299.37 385.351 298.926 383.495 301.059C382.558 302.139 382.234 302.975 382.159 303.562C381.659 302.744 382.256 301.276 383.563 300.188C384.892 299.083 386.471 298.765 387.169 299.449Z" fill="#E27C37"/>
<path d="M388.221 290.871C387.803 290.763 387.258 290.121 387.094 289.153C387.001 288.585 387.284 288.04 387.654 287.868C387.493 288.081 387.344 288.406 387.393 288.854C387.478 289.579 387.751 290.304 388.221 290.871Z" fill="#E27C37"/>
<path d="M358.787 303.547C358.671 303.315 358.559 303.076 358.455 302.837C358.932 302.404 359.403 301.612 358.805 300.36C358.066 298.81 357.708 297.476 357.051 297.207C357.051 297.196 357.051 297.189 357.047 297.177C357.391 297.133 357.861 297.29 358.204 298.257C358.649 299.516 360.717 302.583 358.787 303.547Z" fill="#E27C37"/>
<path opacity="0.35" d="M390.995 295.96C390.995 296.953 390.909 297.928 390.745 298.874C390.174 302.176 388.651 305.153 386.471 307.511C385.183 308.904 383.663 310.081 381.976 310.977C380.879 311.564 379.71 312.031 378.486 312.367C377.056 312.759 375.552 312.965 373.999 312.965C373.286 312.965 372.584 312.92 371.897 312.834C366.141 312.124 361.273 308.531 358.787 303.543C357.816 301.601 357.208 299.449 357.047 297.174C357.017 296.77 357.002 296.363 357.002 295.956C357.002 293.389 357.57 290.957 358.585 288.776C358.749 303.506 389.143 307.208 389.957 290.091C390.551 291.712 390.905 293.445 390.98 295.257C390.991 295.493 390.995 295.724 390.995 295.96Z" fill="url(#paint42_linear_103_48)"/>
<path opacity="0.45" d="M384.287 309.498C383.563 310.051 382.79 310.548 381.98 310.981C380.882 311.568 379.714 312.035 378.489 312.371C377.06 312.763 375.555 312.969 374.002 312.969C373.289 312.969 372.588 312.924 371.901 312.838C366.144 312.128 361.277 308.534 358.79 303.547C357.82 301.604 357.211 299.453 357.051 297.177C357.021 296.774 357.006 296.367 357.006 295.96C357.006 293.393 357.573 290.961 358.589 288.779C359.496 286.829 360.765 285.081 362.303 283.62C357.562 306.248 374.999 309.382 384.287 309.498Z" fill="url(#paint43_linear_103_48)"/>
<path d="M390.995 295.96C390.995 296.953 390.909 297.928 390.745 298.873C390.655 299.382 390.547 299.882 390.416 300.375C389.826 286.695 380.569 278.917 367.208 280.363C369.288 279.455 371.587 278.951 373.999 278.951C381.326 278.951 387.572 283.59 389.957 290.098C390.551 291.719 390.905 293.453 390.98 295.265C390.991 295.493 390.995 295.724 390.995 295.96Z" fill="url(#paint44_linear_103_48)"/>
</g>
<g clip-path="url(#clip4_103_48)">
<path d="M526.047 131.153C502.031 133.431 489.104 162.045 505.012 181.584C512.364 190.647 524.641 195.131 536.741 192.013C543.224 190.341 548.829 186.63 552.822 181.803C570.259 160.831 553.834 128.502 526.047 131.153Z" fill="url(#paint45_radial_103_48)"/>
<path d="M528.965 184.445C520.522 184.445 513.166 179.765 509.358 172.853C500.957 157.612 512.545 139.112 529.461 139.654C540.222 139.872 549.312 147.809 551.046 158.365C553.322 171.987 542.804 184.445 528.965 184.445Z" fill="url(#paint46_radial_103_48)"/>
<g opacity="0.75">
<path d="M537.854 165.667C536.926 165.436 536.67 166.592 537.195 166.852C537.719 167.117 539.038 167.907 539.302 167.378C539.567 166.852 538.908 165.932 537.854 165.667Z" fill="#056DB1"/>
<path d="M547.07 155.919C546.171 156.125 545.096 156.579 546.016 157.238C546.94 157.898 548.384 157.633 548.518 156.843C548.648 156.049 548.783 155.524 547.07 155.919Z" fill="#056DB1"/>
<path d="M529.033 177.13C527.101 175.97 524.292 175.55 524.028 176.735C523.763 177.92 525.607 179.765 527.844 179.5C530.086 179.239 530.351 177.92 529.033 177.13Z" fill="#056DB1"/>
<path d="M535.331 183.525C533.588 184.042 531.758 184.353 529.864 184.424C530.296 181.681 532.904 182.546 534.298 182.924C534.705 183.038 535.045 183.261 535.331 183.525Z" fill="#056DB1"/>
<path d="M516.789 177C517.642 177.374 518.238 175.55 517.054 173.97C515.87 172.39 515.341 170.411 513.892 170.016C512.444 169.621 511.655 174.76 516.789 177Z" fill="#056DB1"/>
<path d="M510.995 170.542C510.529 170.626 510.336 171.596 511.39 171.726C512.444 171.861 512.444 170.281 510.995 170.542Z" fill="#056DB1"/>
<path d="M522.714 165.142C521.786 165.058 520.87 165.537 521.001 166.592C521.131 167.646 522.579 166.592 523.238 166.592C523.898 166.592 524.162 165.272 522.714 165.142Z" fill="#056DB1"/>
<path d="M531.799 152.89C531.002 152.511 530.876 154.209 531.535 154.469C532.194 154.734 534.037 153.94 531.799 152.89Z" fill="#056DB1"/>
</g>
<path d="M523.373 161.453C518.897 162.243 518.238 162.373 514.157 165.802C511.457 168.067 508.64 167.336 507.045 166.579C506.746 165.117 506.587 163.6 506.587 162.045C506.587 155.675 509.245 149.923 513.51 145.847C514.388 146.368 515.295 147.074 516 148.015C517.973 150.65 517.579 151.705 523.373 154.734C529.163 157.764 527.849 160.663 523.373 161.453Z" fill="url(#paint47_linear_103_48)"/>
<path d="M549.194 152.448C545.063 151.583 542.246 156.259 539.433 155.919C536.141 155.524 537.065 150.65 534.298 145.511C532.912 142.94 532.816 141.158 533.063 140.023C540.213 141.343 546.167 146.066 549.194 152.448Z" fill="url(#paint48_linear_103_48)"/>
<path d="M551.348 162.045C551.348 170.739 546.402 178.273 539.172 181.987C537.522 179.378 540.197 177.441 543.383 175.42C547.334 172.916 543.648 171.861 544.303 167.777C544.962 163.693 542.46 163.428 543.644 160.003C544.488 157.558 548.888 159.877 551.336 161.407C551.344 161.617 551.348 161.831 551.348 162.045Z" fill="url(#paint49_linear_103_48)"/>
<path d="M530.351 168.831C527.958 169.575 526.665 166.722 523.637 167.382C520.61 168.041 518.108 173.441 522.189 173.311C526.27 173.18 527.324 172.651 530.351 174.76C533.378 176.87 536.934 175.42 537.988 172.126C539.038 168.831 538.379 166.327 530.351 168.831Z" fill="url(#paint50_linear_103_48)"/>
<path d="M535.351 158.949C534.092 159.352 533.773 160.003 534.167 160.793C534.562 161.583 536.141 161.453 536.93 162.638C537.719 163.823 539.697 165.272 540.222 162.638C540.751 160.003 538.249 158.024 535.351 158.949Z" fill="url(#paint51_linear_103_48)"/>
<path opacity="0.5" d="M530.746 152.095C530.51 153.852 528.902 152.095 526.27 151.57C523.637 151.045 522.584 149.461 523.768 148.406C524.952 147.352 526.53 146.562 528.113 147.482C529.692 148.406 531.006 150.121 530.746 152.095Z" fill="#056DB1"/>
<path d="M527.979 141.687C524.687 141.687 523.108 143.532 520.081 144.587C518.276 145.213 516.848 144.486 515.988 143.797C519.649 141.183 524.129 139.645 528.97 139.645C529.138 139.645 529.301 139.645 529.465 139.654C529.696 140.603 529.612 141.687 527.979 141.687Z" fill="url(#paint52_linear_103_48)"/>
<path opacity="0.45" d="M550.282 168.899C548.455 174.592 544.412 179.294 539.172 181.987C537.95 182.613 536.666 183.13 535.33 183.529C533.588 184.046 531.757 184.357 529.864 184.429C529.566 184.441 529.268 184.445 528.965 184.445C520.522 184.445 513.166 179.765 509.358 172.853C508.291 170.92 507.502 168.81 507.045 166.579C506.746 165.117 506.587 163.6 506.587 162.045C506.587 159.339 507.065 156.747 507.943 154.348C510.475 161.915 516.269 171.68 529.44 173.491C532.009 173.844 534.411 173.89 536.653 173.697C542.153 173.214 546.679 171.289 550.282 168.899Z" fill="url(#paint53_linear_103_48)"/>
<path opacity="0.45" d="M551.348 162.045C551.348 164.436 550.974 166.739 550.282 168.899C548.455 174.592 544.412 179.294 539.172 181.987C537.95 182.613 536.666 183.13 535.33 183.529C533.588 184.046 531.757 184.357 529.864 184.429C529.566 184.441 529.268 184.446 528.965 184.446C520.522 184.446 513.166 179.765 509.358 172.853C513.229 174.445 517.839 175.533 523.306 175.748C528.608 175.958 533.009 175.138 536.653 173.693C544.488 170.592 548.854 164.592 551.222 159.65C551.285 160.226 551.323 160.814 551.34 161.403C551.344 161.617 551.348 161.831 551.348 162.045Z" fill="url(#paint54_linear_103_48)"/>
<path d="M551.05 158.377C551.05 158.377 547.863 146.696 533.21 142.851C524.427 140.544 518.33 142.624 514.858 144.658C525.947 135.599 542.905 139.196 549.194 152.448C550.655 155.52 550.945 157.949 551.05 158.377Z" fill="url(#paint55_linear_103_48)"/>
</g>
<g clip-path="url(#clip5_103_48)">
<circle cx="143" cy="274" r="143" fill="url(#paint56_radial_103_48)"/>
<path d="M242.583 274.515C242.335 362.851 134.78 406.132 73.3281 344.68C10.5416 282.504 54.7191 174.853 143.169 174.853C200.827 174.853 242.716 222.387 242.583 274.515Z" fill="url(#paint57_radial_103_48)"/>
<g opacity="0.5">
<path d="M241.973 264.314C240.123 264.162 237.95 264.162 235.528 264.486C228.111 265.458 216.747 269.672 204.735 284.258C202.829 286.584 201.056 288.777 199.321 290.912C180.082 314.726 171.293 325.613 113.902 330.819C95.7694 332.458 83.2236 338.522 74.5292 345.881C74.1097 345.481 73.7093 345.1 73.3089 344.68C82.213 337.092 95.1212 330.819 113.749 329.141C170.415 323.993 178.5 314.002 198.005 289.844C199.721 287.709 201.494 285.516 203.42 283.19C215.832 268.108 227.673 263.78 235.414 262.789C237.778 262.484 239.913 262.465 241.763 262.598C241.858 263.17 241.935 263.742 241.973 264.314Z" fill="#FFED9F"/>
<path d="M241.458 288.243C241.382 288.796 241.306 289.349 241.21 289.883C232.382 289.749 224.508 293.353 217.701 300.655C213.735 304.907 210.341 308.892 207.348 312.4C192.609 329.675 183.705 340.104 139.947 347.159C122.997 349.885 110.527 355.834 102.805 364.834C102.271 364.605 101.738 364.357 101.204 364.109C109.174 354.595 122.101 348.322 139.68 345.5C182.828 338.541 191.084 328.874 206.07 311.313C209.083 307.786 212.496 303.782 216.481 299.511C224.679 290.683 233.622 288.09 241.458 288.243Z" fill="#FFED9F"/>
<path d="M235.032 311.866C234.785 312.457 234.537 313.068 234.27 313.659C227.158 314.86 221.057 318.597 216.042 324.87C202.39 341.935 193.334 350.743 169.367 357.874C153.16 362.679 146.315 368.704 143.474 373.414H143.169C142.616 373.414 142.082 373.414 141.529 373.395C145.247 366.302 154.438 360.525 168.871 356.235C192.38 349.256 201.284 340.581 214.707 323.802C220.999 315.966 228.34 312.801 235.032 311.866Z" fill="#FFED9F"/>
<path d="M138.688 285.974C132.454 296.823 116.838 300.941 93.7293 305.994C73.7284 310.36 63.5659 319.188 58.5132 325.995C58.1891 325.461 57.8649 324.927 57.5408 324.393C57.9984 323.783 58.5131 323.173 59.0661 322.525C64.2903 316.5 74.4911 308.473 93.3671 304.335C116.037 299.378 131.329 295.355 137.22 285.135C140.977 278.576 140.824 269.615 136.744 256.916C133.293 246.201 128.107 235.447 123.111 225.056C115.618 209.478 108.373 194.454 107.915 181.317C108.487 181.107 109.04 180.897 109.612 180.688C109.86 193.615 117.105 208.678 124.636 224.312C129.67 234.761 134.875 245.553 138.364 256.401C142.597 269.577 142.712 278.976 138.688 285.974Z" fill="#FFED9F"/>
<path d="M116.438 269.348C112.491 276.784 100.231 279.834 78.9909 282.866C63.5469 285.078 53.0411 290.226 46.1581 295.259C46.0246 294.63 45.8912 293.982 45.7577 293.353C52.8314 288.357 63.3753 283.381 78.743 281.188C98.9537 278.309 111.347 275.316 114.932 268.547C117.258 264.143 116.171 257.793 111.385 247.993C110.336 245.858 109.307 243.779 108.315 241.758C99.2969 223.607 91.9372 208.792 94.3968 187.647C95.0069 187.304 95.598 186.961 96.2272 186.637C93.3672 207.82 100.441 222.081 109.841 240.996C110.851 243.017 111.881 245.095 112.93 247.23C117.963 257.603 119.05 264.409 116.438 269.348Z" fill="#FFED9F"/>
<path d="M71.4025 255.029C69.1717 255.887 66.6549 256.859 63.9665 257.984C53.7658 262.312 47.4929 266.983 43.9656 270.282C43.9846 269.481 44.0419 268.68 44.0991 267.88C47.8933 264.6 53.9946 260.386 63.3182 256.44C66.0257 255.296 68.5616 254.323 70.8114 253.465C84.1581 248.355 89.6874 246.239 85.9504 225.208C83.4717 211.252 84.0056 200.555 85.0352 193.672C85.6835 193.195 86.3317 192.738 86.9991 192.28C85.8551 198.915 84.9779 210.108 87.6091 224.922C91.5941 247.307 84.8445 249.9 71.4025 255.029Z" fill="#FFED9F"/>
<path d="M70.4874 229.155C66.2356 235.714 57.5221 238.021 50.3721 238.765C50.6009 238.155 50.8487 237.545 51.0966 236.934C57.7127 236.134 65.3775 233.922 69.0765 228.221C72.1843 223.435 72.07 216.8 68.7143 208.449C69.1337 207.972 69.5341 207.515 69.9726 207.057C73.8431 216.323 74.0148 223.74 70.4874 229.155Z" fill="#FFED9F"/>
<path d="M240.238 253.179C225.137 250.167 218.788 240.462 212.61 231.043C211.294 229.022 209.922 226.943 208.511 224.999C207.443 223.531 206.432 222.043 205.479 220.613C198.405 210.165 191.713 200.288 157.736 194.873C141.377 192.261 130.013 187.018 123.988 179.258C123.397 178.495 122.901 177.751 122.463 177.027C123.054 176.893 123.645 176.779 124.236 176.665C124.579 177.218 124.98 177.771 125.418 178.343C129.403 183.395 138.288 190.069 158.003 193.215C192.704 198.744 199.588 208.906 206.871 219.679C207.824 221.09 208.816 222.558 209.884 224.007C211.333 225.99 212.705 228.087 214.04 230.128C219.894 239.07 225.919 248.26 239.856 251.349C239.971 251.94 240.123 252.55 240.238 253.179Z" fill="#FFED9F"/>
<path d="M233.183 232.168C222.715 229.308 217.015 222.043 211.028 214.417C204.278 205.837 196.651 196.113 180.712 190.888C163.742 185.321 155.563 179.563 151.616 175.216C152.493 175.292 153.389 175.368 154.266 175.483C158.404 179.391 166.278 184.387 181.226 189.287C197.643 194.664 205.46 204.616 212.343 213.387C218.082 220.69 223.192 227.191 232.192 230.128C232.535 230.795 232.859 231.481 233.183 232.168Z" fill="#FFED9F"/>
<path d="M207.195 249.156C203.973 233.007 181.608 209.764 161.206 201.299C150.739 196.971 141.816 196.952 135.39 201.223C131.443 203.854 134.284 211.976 138.612 224.255C140.576 229.823 142.788 236.114 144.637 242.769C146.106 248.05 147.04 253.923 147.955 259.586C150.624 276.174 153.141 291.846 167.918 293.581C168.814 293.696 169.729 293.734 170.644 293.734C179.491 293.734 189.311 288.929 196.861 280.73C205.422 271.445 209.292 259.643 207.195 249.156ZM195.603 279.587C187.614 288.243 177.089 292.952 168.108 291.904C154.59 290.321 152.169 275.258 149.614 259.319C148.699 253.599 147.745 247.688 146.258 242.311C144.39 235.6 142.159 229.27 140.195 223.683C136.572 213.406 133.445 204.54 136.305 202.633C143.798 197.638 153.618 200.002 160.539 202.862C180.159 210.985 202.448 234.093 205.517 249.48C207.519 259.433 203.801 270.701 195.603 279.587Z" fill="#FFED9F"/>
<path d="M189.883 232.797C179.835 220.995 164.2 209.555 151.082 209.555C150.453 209.555 149.862 209.574 149.252 209.631C148.032 209.726 147.116 210.336 146.602 211.347C143.513 217.41 155.544 237.525 155.658 237.716C158.69 242.769 159.262 249.938 159.796 256.878C160.596 267.174 161.359 276.898 170.397 277.718C171.312 277.794 172.227 277.852 173.123 277.852C186.203 277.852 197.586 269.291 200.751 256.649C202.067 251.368 197.91 242.216 189.883 232.797ZM199.111 256.23C195.927 268.909 183.915 277.241 170.53 276.021C162.904 275.335 162.236 266.717 161.454 256.745C160.902 249.614 160.33 242.235 157.069 236.839C152.207 228.774 146.201 215.77 148.07 212.11C148.337 211.614 148.737 211.347 149.366 211.309C162.255 210.222 178.348 221.853 188.586 233.884C196.156 242.769 200.293 251.54 199.111 256.23Z" fill="#FFED9F"/>
<path d="M186.184 252.035C185.364 243.303 175.64 230.433 168.013 230.433C167.289 230.433 166.869 230.795 166.641 231.1C165.725 232.32 166.412 234.742 167.804 239.26C168.719 242.216 169.748 245.572 169.977 248.279C170.073 249.366 170.073 250.453 170.092 251.501C170.13 254.514 170.187 257.355 172.17 258.975C173.219 259.833 174.706 260.253 176.708 260.253C177.966 260.253 179.434 260.081 181.112 259.776C184.792 259.033 186.584 256.306 186.184 252.035ZM180.826 258.079C176.994 258.804 174.515 258.67 173.257 257.641C171.884 256.516 171.846 254.171 171.808 251.444C171.789 250.376 171.77 249.271 171.674 248.127C171.445 245.228 170.378 241.777 169.424 238.727C168.7 236.362 167.594 232.816 167.975 232.11H167.994C174.63 232.11 183.763 244.447 184.487 252.188C184.811 255.562 183.572 257.545 180.826 258.079Z" fill="#FFED9F"/>
</g>
<path opacity="0.65" d="M240.886 292.399C239.532 299.53 237.34 306.661 234.289 313.678C206.547 377.532 122.558 393.91 73.3471 344.699C43.279 314.917 37.7497 274.686 49.8761 240.843C59.9433 264.238 76.169 299.321 133.598 317.014C174.42 329.579 221.018 318.692 240.886 292.399Z" fill="url(#paint58_linear_103_48)"/>
<path opacity="0.65" d="M242.583 274.515C242.564 280.426 242.011 286.412 240.867 292.399C239.514 299.53 237.321 306.661 234.27 313.678C206.528 377.532 122.54 393.91 73.3285 344.699C67.475 338.903 62.5558 332.706 58.5137 326.243C197.433 389.43 241.344 270.206 241.344 270.206L242.583 274.515Z" fill="url(#paint59_linear_103_48)"/>
</g>
<defs>
<radialGradient id="paint0_radial_103_48" cx="0" cy="0" r="1" gradientUnits="userSpaceOnUse" gradientTransform="translate(764 35.9994) scale(31.5698 31.5963)">
<stop stop-color="#E5AC77"/>
<stop offset="1" stop-color="#F6B895" stop-opacity="0"/>
</radialGradient>
<radialGradient id="paint1_radial_103_48" cx="0" cy="0" r="1" gradientUnits="userSpaceOnUse" gradientTransform="translate(766.993 22.0843) scale(31.7015 31.7281)">
<stop stop-color="#EFA08F"/>
<stop offset="1" stop-color="#C97324"/>
</radialGradient>
<linearGradient id="paint2_linear_103_48" x1="751.054" y1="67.2551" x2="773.605" y2="5.17587" gradientUnits="userSpaceOnUse">
<stop stop-color="#864313"/>
<stop offset="1" stop-color="#9B4413" stop-opacity="0.1"/>
</linearGradient>
<linearGradient id="paint3_linear_103_48" x1="747.745" y1="66.0536" x2="770.297" y2="3.97386" gradientUnits="userSpaceOnUse">
<stop stop-color="#863613"/>
<stop offset="1" stop-color="#9B4C13" stop-opacity="0.1"/>
</linearGradient>
<linearGradient id="paint4_linear_103_48" x1="750.823" y1="67.171" x2="773.375" y2="5.0922" gradientUnits="userSpaceOnUse">
<stop stop-color="#865113"/>
<stop offset="1" stop-color="#9B3C13" stop-opacity="0.1"/>
</linearGradient>
<linearGradient id="paint5_linear_103_48" x1="751.95" y1="67.581" x2="774.502" y2="5.50157" gradientUnits="userSpaceOnUse">
<stop stop-color="#864A13"/>
<stop offset="1" stop-color="#9B3C13" stop-opacity="0.1"/>
</linearGradient>
<linearGradient id="paint6_linear_103_48" x1="752.462" y1="67.7669" x2="775.014" y2="5.68761" gradientUnits="userSpaceOnUse">
<stop stop-color="#864A13"/>
<stop offset="1" stop-color="#9B3C13" stop-opacity="0.1"/>
</linearGradient>
<linearGradient id="paint7_linear_103_48" x1="737.481" y1="62.3247" x2="760.032" y2="0.245438" gradientUnits="userSpaceOnUse">
<stop stop-color="#863C13"/>
<stop offset="1" stop-color="#9B5413" stop-opacity="0.1"/>
</linearGradient>
<linearGradient id="paint8_linear_103_48" x1="759.646" y1="70.3763" x2="782.197" y2="8.29715" gradientUnits="userSpaceOnUse">
<stop stop-color="#864A13"/>
<stop offset="1" stop-color="#9B6513" stop-opacity="0.1"/>
</linearGradient>
<linearGradient id="paint9_linear_103_48" x1="763.982" y1="71.9516" x2="786.533" y2="9.87223" gradientUnits="userSpaceOnUse">
<stop stop-color="#863C13"/>
<stop offset="1" stop-color="#9B4413" stop-opacity="0.1"/>
</linearGradient>
<linearGradient id="paint10_linear_103_48" x1="766.901" y1="59.344" x2="753.094" y2="8.98934" gradientUnits="userSpaceOnUse">
<stop stop-color="#7F4612"/>
<stop offset="1" stop-color="#D5743D" stop-opacity="0.1"/>
</linearGradient>
<linearGradient id="paint11_linear_103_48" x1="768.227" y1="63.5564" x2="764.011" y2="39.034" gradientUnits="userSpaceOnUse">
<stop stop-color="#6D2812"/>
<stop offset="1" stop-color="#6A3C12" stop-opacity="0"/>
</linearGradient>
<radialGradient id="paint12_radial_103_48" cx="0" cy="0" r="1" gradientUnits="userSpaceOnUse" gradientTransform="translate(763.9 49.3271) scale(21.4596 21.4776)">
<stop stop-color="#EFA68F"/>
<stop offset="1" stop-color="#C96924"/>
</radialGradient>
<linearGradient id="paint13_linear_103_48" x1="787.116" y1="-3.73203" x2="760.888" y2="38.1067" gradientUnits="userSpaceOnUse">
<stop stop-color="#FFDFAE"/>
<stop offset="1" stop-color="#FFD5AE" stop-opacity="0"/>
</linearGradient>
<radialGradient id="paint14_radial_103_48" cx="0" cy="0" r="1" gradientUnits="userSpaceOnUse" gradientTransform="translate(635.5 563.497) scale(35.6254 35.6523)">
<stop stop-color="#FFB16C"/>
<stop offset="1" stop-color="#FFA360" stop-opacity="0"/>
</radialGradient>
<radialGradient id="paint15_radial_103_48" cx="0" cy="0" r="1" gradientUnits="userSpaceOnUse" gradientTransform="translate(630.783 546.691) scale(48.7249 48.7617)">
<stop stop-color="#FFA360"/>
<stop offset="1" stop-color="#F22749"/>
</radialGradient>
<linearGradient id="paint16_linear_103_48" x1="630.285" y1="527.102" x2="642.139" y2="609.6" gradientUnits="userSpaceOnUse">
<stop stop-color="#FFBB71"/>
<stop offset="1" stop-color="#FFBB71" stop-opacity="0"/>
</linearGradient>
<linearGradient id="paint17_linear_103_48" x1="631.274" y1="526.96" x2="643.128" y2="609.457" gradientUnits="userSpaceOnUse">
<stop stop-color="#FFBB71"/>
<stop offset="1" stop-color="#FFBB71" stop-opacity="0"/>
</linearGradient>
<linearGradient id="paint18_linear_103_48" x1="631.511" y1="526.926" x2="643.366" y2="609.423" gradientUnits="userSpaceOnUse">
<stop stop-color="#FFBB71"/>
<stop offset="1" stop-color="#FFBB71" stop-opacity="0"/>
</linearGradient>
<linearGradient id="paint19_linear_103_48" x1="631.975" y1="526.859" x2="643.83" y2="609.357" gradientUnits="userSpaceOnUse">
<stop stop-color="#FFBB71"/>
<stop offset="1" stop-color="#FFBB71" stop-opacity="0"/>
</linearGradient>
<linearGradient id="paint20_linear_103_48" x1="637.025" y1="526.133" x2="648.879" y2="608.632" gradientUnits="userSpaceOnUse">
<stop stop-color="#FFBB71"/>
<stop offset="1" stop-color="#FFBB71" stop-opacity="0"/>
</linearGradient>
<linearGradient id="paint21_linear_103_48" x1="628.236" y1="527.397" x2="640.091" y2="609.894" gradientUnits="userSpaceOnUse">
<stop stop-color="#FFBB71"/>
<stop offset="1" stop-color="#FFBB71" stop-opacity="0"/>
</linearGradient>
<linearGradient id="paint22_linear_103_48" x1="619.643" y1="528.631" x2="631.497" y2="611.129" gradientUnits="userSpaceOnUse">
<stop stop-color="#FFBB71"/>
<stop offset="1" stop-color="#FFBB71" stop-opacity="0"/>
</linearGradient>
<linearGradient id="paint23_linear_103_48" x1="637.92" y1="526.005" x2="649.774" y2="608.502" gradientUnits="userSpaceOnUse">
<stop stop-color="#FFBB71"/>
<stop offset="1" stop-color="#FFBB71" stop-opacity="0"/>
</linearGradient>
<linearGradient id="paint24_linear_103_48" x1="631.328" y1="592.718" x2="637.204" y2="551.616" gradientUnits="userSpaceOnUse">
<stop stop-color="#D8274D"/>
<stop offset="1" stop-color="#F22749" stop-opacity="0"/>
</linearGradient>
<linearGradient id="paint25_linear_103_48" x1="636.538" y1="592.489" x2="634.286" y2="572.237" gradientUnits="userSpaceOnUse">
<stop stop-color="#A9273E"/>
<stop offset="1" stop-color="#B62738" stop-opacity="0"/>
</linearGradient>
<linearGradient id="paint26_linear_103_48" x1="663.163" y1="527.329" x2="640.658" y2="554.078" gradientUnits="userSpaceOnUse">
<stop stop-color="#FFECB8"/>
<stop offset="1" stop-color="#FFD371" stop-opacity="0.2"/>
</linearGradient>
<radialGradient id="paint27_radial_103_48" cx="0" cy="0" r="1" gradientUnits="userSpaceOnUse" gradientTransform="translate(333.5 483.499) scale(21.8347 21.8512)">
<stop stop-color="#EFC390"/>
<stop offset="1" stop-color="#F9B5A6" stop-opacity="0"/>
</radialGradient>
<radialGradient id="paint28_radial_103_48" cx="0" cy="0" r="1" gradientUnits="userSpaceOnUse" gradientTransform="translate(332.692 476.365) scale(18.4551 18.4691)">
<stop stop-color="#EACCA0"/>
<stop offset="1" stop-color="#D98301"/>
</radialGradient>
<linearGradient id="paint29_linear_103_48" x1="334.009" y1="507.824" x2="318.69" y2="468.904" gradientUnits="userSpaceOnUse">
<stop stop-color="#A65B31"/>
<stop offset="1" stop-color="#B16E31" stop-opacity="0.2"/>
</linearGradient>
<linearGradient id="paint30_linear_103_48" x1="329.568" y1="509.572" x2="314.249" y2="470.652" gradientUnits="userSpaceOnUse">
<stop stop-color="#A66231"/>
<stop offset="1" stop-color="#B18D31" stop-opacity="0.2"/>
</linearGradient>
<linearGradient id="paint31_linear_103_48" x1="340.076" y1="505.436" x2="324.757" y2="466.516" gradientUnits="userSpaceOnUse">
<stop stop-color="#A64D31"/>
<stop offset="1" stop-color="#B16E31" stop-opacity="0.2"/>
</linearGradient>
<linearGradient id="paint32_linear_103_48" x1="349.166" y1="501.858" x2="333.847" y2="462.938" gradientUnits="userSpaceOnUse">
<stop stop-color="#A64D31"/>
<stop offset="1" stop-color="#B16731" stop-opacity="0.2"/>
</linearGradient>
<linearGradient id="paint33_linear_103_48" x1="336.807" y1="506.722" x2="321.488" y2="467.802" gradientUnits="userSpaceOnUse">
<stop stop-color="#A66931"/>
<stop offset="1" stop-color="#B16E31" stop-opacity="0.2"/>
</linearGradient>
<linearGradient id="paint34_linear_103_48" x1="349.781" y1="501.616" x2="334.462" y2="462.696" gradientUnits="userSpaceOnUse">
<stop stop-color="#A66931"/>
<stop offset="1" stop-color="#B16E31" stop-opacity="0.2"/>
</linearGradient>
<linearGradient id="paint35_linear_103_48" x1="343.753" y1="503.988" x2="328.434" y2="465.068" gradientUnits="userSpaceOnUse">
<stop stop-color="#A65431"/>
<stop offset="1" stop-color="#B16E31" stop-opacity="0.2"/>
</linearGradient>
<linearGradient id="paint36_linear_103_48" x1="341.732" y1="504.784" x2="326.413" y2="465.864" gradientUnits="userSpaceOnUse">
<stop stop-color="#A66231"/>
<stop offset="1" stop-color="#B15F31" stop-opacity="0.2"/>
</linearGradient>
<linearGradient id="paint37_linear_103_48" x1="329.248" y1="502.565" x2="334.704" y2="475.695" gradientUnits="userSpaceOnUse">
<stop stop-color="#A35A31"/>
<stop offset="1" stop-color="#B87B42" stop-opacity="0.3"/>
</linearGradient>
<linearGradient id="paint38_linear_103_48" x1="335.042" y1="506.495" x2="332.977" y2="487.817" gradientUnits="userSpaceOnUse">
<stop stop-color="#A35C1A"/>
<stop offset="1" stop-color="#A3662E" stop-opacity="0.1"/>
</linearGradient>
<linearGradient id="paint39_linear_103_48" x1="356.294" y1="453.38" x2="335.876" y2="478.449" gradientUnits="userSpaceOnUse">
<stop stop-color="#F6E4A4"/>
<stop offset="1" stop-color="#F9E2B5" stop-opacity="0"/>
</linearGradient>
<radialGradient id="paint40_radial_103_48" cx="0" cy="0" r="1" gradientUnits="userSpaceOnUse" gradientTransform="translate(374 295.999) scale(20.3569 20.3721)">
<stop stop-color="#FFD86C"/>
<stop offset="1" stop-color="#FFD160" stop-opacity="0"/>
</radialGradient>
<radialGradient id="paint41_radial_103_48" cx="0" cy="0" r="1" gradientUnits="userSpaceOnUse" gradientTransform="translate(373.25 286.955) scale(25.952 25.9714)">
<stop stop-color="#FFE46A"/>
<stop offset="1" stop-color="#FFA44A"/>
</radialGradient>
<linearGradient id="paint42_linear_103_48" x1="359.482" y1="304.949" x2="389.547" y2="290.894" gradientUnits="userSpaceOnUse">
<stop stop-color="#E27437"/>
<stop offset="1" stop-color="#E27437" stop-opacity="0.2"/>
</linearGradient>
<linearGradient id="paint43_linear_103_48" x1="370.716" y1="320.56" x2="370.55" y2="278.408" gradientUnits="userSpaceOnUse">
<stop stop-color="#CC622E"/>
<stop offset="1" stop-color="#CC622E" stop-opacity="0.2"/>
</linearGradient>
<linearGradient id="paint44_linear_103_48" x1="389.117" y1="278.943" x2="378.768" y2="290.4" gradientUnits="userSpaceOnUse">
<stop stop-color="#FFF2B6"/>
<stop offset="1" stop-color="#FFF49A" stop-opacity="0.2"/>
</linearGradient>
<radialGradient id="paint45_radial_103_48" cx="0" cy="0" r="1" gradientUnits="userSpaceOnUse" gradientTransform="translate(528.999 162.001) scale(26.7443 26.7651)">
<stop stop-color="#90DD6F"/>
<stop offset="1" stop-color="#B8FFA9" stop-opacity="0"/>
</radialGradient>
<radialGradient id="paint46_radial_103_48" cx="0" cy="0" r="1" gradientUnits="userSpaceOnUse" gradientTransform="translate(530.077 153.28) scale(27.1626 27.1836)">
<stop stop-color="#00B3DC"/>
<stop offset="1" stop-color="#056DB0"/>
</radialGradient>
<linearGradient id="paint47_linear_103_48" x1="514.26" y1="127.511" x2="519.402" y2="191.936" gradientUnits="userSpaceOnUse">
<stop stop-color="#F2F236"/>
<stop offset="1" stop-color="#F2F236" stop-opacity="0"/>
</linearGradient>
<linearGradient id="paint48_linear_103_48" x1="539.375" y1="125.507" x2="544.517" y2="189.932" gradientUnits="userSpaceOnUse">
<stop stop-color="#F2F236"/>
<stop offset="1" stop-color="#F2F236" stop-opacity="0"/>
</linearGradient>
<linearGradient id="paint49_linear_103_48" x1="541.369" y1="125.347" x2="546.511" y2="189.773" gradientUnits="userSpaceOnUse">
<stop stop-color="#F2F236"/>
<stop offset="1" stop-color="#F2F236" stop-opacity="0"/>
</linearGradient>
<linearGradient id="paint50_linear_103_48" x1="525.686" y1="126.599" x2="530.829" y2="191.025" gradientUnits="userSpaceOnUse">
<stop stop-color="#F2F236"/>
<stop offset="1" stop-color="#F2F236" stop-opacity="0"/>
</linearGradient>
<linearGradient id="paint51_linear_103_48" x1="534.353" y1="125.907" x2="539.495" y2="190.333" gradientUnits="userSpaceOnUse">
<stop stop-color="#F2F236"/>
<stop offset="1" stop-color="#F2F236" stop-opacity="0"/>
</linearGradient>
<linearGradient id="paint52_linear_103_48" x1="521.569" y1="126.928" x2="526.711" y2="191.353" gradientUnits="userSpaceOnUse">
<stop stop-color="#F2F236"/>
<stop offset="1" stop-color="#F2F236" stop-opacity="0"/>
</linearGradient>
<linearGradient id="paint53_linear_103_48" x1="525.563" y1="191.044" x2="528.926" y2="160.412" gradientUnits="userSpaceOnUse">
<stop stop-color="#00ACD8"/>
<stop offset="1" stop-color="#0983BD"/>
</linearGradient>
<linearGradient id="paint54_linear_103_48" x1="527.82" y1="189.727" x2="531.578" y2="157.712" gradientUnits="userSpaceOnUse">
<stop stop-color="#056EB1"/>
<stop offset="1" stop-color="#00A9D7" stop-opacity="0.3"/>
</linearGradient>
<linearGradient id="paint55_linear_103_48" x1="545.22" y1="127.309" x2="531.116" y2="155.101" gradientUnits="userSpaceOnUse">
<stop stop-color="#E2FFB5"/>
<stop offset="1" stop-color="#FFFFB3" stop-opacity="0"/>
</linearGradient>
<radialGradient id="paint56_radial_103_48" cx="0" cy="0" r="1" gradientUnits="userSpaceOnUse" gradientTransform="translate(143.979 272.972) rotate(0.490606) scale(120.099 114.361)">
<stop stop-color="#FFD83D"/>
<stop offset="1" stop-color="#FCC724" stop-opacity="0"/>
</radialGradient>
<radialGradient id="paint57_radial_103_48" cx="0" cy="0" r="1" gradientUnits="userSpaceOnUse" gradientTransform="translate(144.92 236.075) scale(99.3385 99.3385)">
<stop stop-color="#FFD83D"/>
<stop offset="1" stop-color="#FC7B24"/>
</radialGradient>
<linearGradient id="paint58_linear_103_48" x1="127.524" y1="375.009" x2="142.755" y2="277.421" gradientUnits="userSpaceOnUse">
<stop stop-color="#E04127"/>
<stop offset="1" stop-color="#E04127" stop-opacity="0.1"/>
</linearGradient>
<linearGradient id="paint59_linear_103_48" x1="170.211" y1="380.37" x2="145.674" y2="280.53" gradientUnits="userSpaceOnUse">
<stop stop-color="#C22C27"/>
<stop offset="1" stop-color="#D33127" stop-opacity="0.2"/>
</linearGradient>
<clipPath id="clip0_103_48">
<rect width="72" height="72" fill="white" transform="translate(728)"/>
</clipPath>
<clipPath id="clip1_103_48">
<rect width="77" height="77" fill="white" transform="translate(597 525)"/>
</clipPath>
<clipPath id="clip2_103_48">
<rect width="51" height="51" fill="white" transform="translate(308 458)"/>
</clipPath>
<clipPath id="clip3_103_48">
<rect width="44" height="44" fill="white" transform="translate(352 274)"/>
</clipPath>
<clipPath id="clip4_103_48">
<rect width="62" height="62" fill="white" transform="translate(498 131)"/>
</clipPath>
<clipPath id="clip5_103_48">
<rect width="286" height="286" fill="white" transform="translate(0 131)"/>
</clipPath>
</defs>
</svg>
