<svg width="200" height="200" viewBox="0 0 200 200" fill="none" xmlns="http://www.w3.org/2000/svg">
<path d="M199.583 100.515C199.335 188.851 91.78 232.132 30.3281 170.68C-32.4584 108.504 11.7191 0.853333 100.169 0.853333C157.827 0.853333 199.716 48.3866 199.583 100.515Z" fill="url(#paint0_radial_5_691)"/>
<g opacity="0.5">
<path d="M198.973 90.3142C197.123 90.1616 194.95 90.1616 192.528 90.4857C185.111 91.4581 173.748 95.6719 161.736 110.258C159.829 112.584 158.056 114.777 156.321 116.912C137.082 140.726 128.293 151.613 70.9019 156.819C52.7695 158.458 40.2237 164.522 31.5293 171.881C31.1098 171.481 30.7094 171.1 30.309 170.68C39.2131 163.092 52.1213 156.819 70.7494 155.141C127.416 149.993 135.5 140.002 155.005 115.844C156.721 113.709 158.494 111.516 160.42 109.19C172.832 94.1084 184.673 89.7802 192.414 88.7888C194.778 88.4837 196.913 88.4647 198.763 88.5982C198.858 89.1702 198.935 89.7422 198.973 90.3142Z" fill="#FFED9F"/>
<path d="M198.458 114.243C198.382 114.796 198.306 115.349 198.21 115.883C189.382 115.749 181.508 119.353 174.701 126.655C170.735 130.907 167.341 134.892 164.348 138.4C149.609 155.675 140.705 166.104 96.9472 173.159C79.9969 175.885 67.5273 181.834 59.8053 190.834C59.2715 190.605 58.7376 190.357 58.2037 190.109C66.1736 180.595 79.1008 174.322 96.6803 171.5C139.828 164.541 148.084 154.874 163.07 137.313C166.083 133.786 169.496 129.782 173.481 125.511C181.68 116.683 190.622 114.09 198.458 114.243Z" fill="#FFED9F"/>
<path d="M192.032 137.866C191.785 138.457 191.537 139.068 191.27 139.659C184.158 140.86 178.057 144.597 173.042 150.87C159.39 167.935 150.334 176.743 126.367 183.874C110.16 188.679 103.315 194.704 100.474 199.414H100.169C99.6164 199.414 99.0825 199.414 98.5295 199.395C102.248 192.302 111.438 186.525 125.871 182.235C149.38 175.256 158.284 166.581 171.707 149.802C177.999 141.966 185.34 138.801 192.032 137.866Z" fill="#FFED9F"/>
<path d="M95.6885 111.974C89.4537 122.823 73.8381 126.941 50.7293 131.994C30.7284 136.36 20.5659 145.188 15.5132 151.995C15.1891 151.461 14.8649 150.927 14.5408 150.393C14.9984 149.783 15.5131 149.173 16.0661 148.525C21.2903 142.5 31.4911 134.473 50.3671 130.335C73.0373 125.378 88.3288 121.355 94.2204 111.135C97.9765 104.576 97.824 95.6147 93.7437 82.9163C90.2927 72.2008 85.1065 61.4472 80.1111 51.0559C72.6179 35.4784 65.3725 20.4539 64.9149 7.31696C65.4869 7.10723 66.0398 6.89746 66.6118 6.68773C66.8597 19.6149 74.105 34.6776 81.6364 50.3123C86.67 60.7608 91.8752 71.5526 95.3644 82.4015C99.5972 95.5766 99.7116 104.976 95.6885 111.974Z" fill="#FFED9F"/>
<path d="M73.4378 95.3477C69.491 102.784 57.2311 105.834 35.9909 108.866C20.5469 111.078 10.0411 116.226 3.15807 121.259C3.02461 120.63 2.89116 119.982 2.75769 119.353C9.83142 114.357 20.3753 109.381 35.743 107.188C55.9537 104.309 68.347 101.316 71.9316 94.547C74.2577 90.1426 73.1709 83.7934 68.3851 73.9931C67.3365 71.8576 66.3069 69.7793 65.3154 67.7583C56.2969 49.6068 48.9372 34.792 51.3968 13.6471C52.0069 13.3039 52.598 12.9607 53.2272 12.6366C50.3672 33.8196 57.4409 48.0815 66.8407 66.9956C67.8513 69.0167 68.8809 71.095 69.9295 73.2304C74.9631 83.6027 76.05 90.4095 73.4378 95.3477Z" fill="#FFED9F"/>
<path d="M28.4025 81.0287C26.1717 81.8867 23.6549 82.8591 20.9665 83.984C10.7658 88.3121 4.49291 92.9835 0.965576 96.282C0.984643 95.4812 1.04186 94.6804 1.09906 93.8796C4.89332 90.6002 10.9946 86.3864 20.3182 82.4396C23.0257 81.2956 25.5616 80.3232 27.8114 79.4652C41.1581 74.3554 46.6874 72.2389 42.9504 51.2084C40.4717 37.2516 41.0056 26.5552 42.0352 19.6721C42.6835 19.1955 43.3317 18.7379 43.9991 18.2803C42.8551 24.9155 41.9779 36.1076 44.6091 50.9224C48.5941 73.3067 41.8445 75.8998 28.4025 81.0287Z" fill="#FFED9F"/>
<path d="M27.4874 55.1552C23.2356 61.7142 14.5221 64.0212 7.37207 64.7648C7.60087 64.1547 7.84875 63.5445 8.09661 62.9344C14.7127 62.1336 22.3775 59.9219 26.0765 54.221C29.1843 49.4352 29.07 42.8 25.7143 34.4488C26.1337 33.9721 26.5341 33.5146 26.9726 33.057C30.8431 42.3234 31.0148 49.7403 27.4874 55.1552Z" fill="#FFED9F"/>
<path d="M197.238 79.1792C182.137 76.1667 175.788 66.4617 169.61 57.0428C168.295 55.0217 166.922 52.9435 165.511 50.9987C164.443 49.5306 163.433 48.0433 162.479 46.6133C155.405 36.1648 148.713 26.2883 114.736 20.8733C98.377 18.2612 87.0133 13.0179 80.9883 5.25773C80.3972 4.49506 79.9014 3.75149 79.4629 3.02696C80.054 2.89349 80.6451 2.77909 81.2361 2.66469C81.5793 3.21762 81.9797 3.77056 82.4183 4.34256C86.4032 9.39523 95.2883 16.0685 115.003 19.2145C149.705 24.7439 156.588 34.9064 163.871 45.6791C164.824 47.09 165.816 48.5581 166.884 50.0072C168.333 51.9901 169.705 54.0875 171.04 56.1276C176.894 65.0699 182.919 74.26 196.856 77.3488C196.971 77.9399 197.123 78.55 197.238 79.1792Z" fill="#FFED9F"/>
<path d="M190.183 58.1677C179.715 55.3077 174.015 48.0433 168.028 40.4167C161.278 31.8367 153.651 22.1127 137.712 16.8884C120.742 11.3209 112.563 5.56281 108.616 1.21561C109.493 1.29187 110.389 1.36817 111.266 1.48257C115.404 5.39123 123.278 10.3867 138.226 15.2868C154.643 20.6636 162.46 30.6164 169.343 39.3871C175.082 46.6896 180.192 53.1914 189.192 56.1276C189.535 56.795 189.859 57.4813 190.183 58.1677Z" fill="#FFED9F"/>
<path d="M164.195 75.1561C160.973 59.0066 138.608 35.7644 118.206 27.2988C107.739 22.9706 98.8156 22.9516 92.3901 27.2225C88.4433 29.8537 91.2842 37.9761 95.6123 50.255C97.5762 55.8225 99.7879 62.1145 101.637 68.7688C103.106 74.0502 104.04 79.9228 104.955 85.5856C107.624 102.174 110.141 117.846 124.918 119.581C125.814 119.696 126.729 119.734 127.644 119.734C136.491 119.734 146.311 114.929 153.861 106.731C162.422 97.445 166.292 85.6428 164.195 75.1561ZM152.603 105.587C144.614 114.243 134.089 118.952 125.108 117.904C111.59 116.321 109.169 101.258 106.614 85.3187C105.699 79.5987 104.745 73.688 103.258 68.3112C101.39 61.5997 99.1587 55.2696 97.1949 49.6831C93.5722 39.4061 90.4453 30.5401 93.3053 28.6335C100.798 23.638 110.618 26.0022 117.539 28.8622C137.159 36.9846 159.448 60.0935 162.517 75.4803C164.519 85.4331 160.801 96.7015 152.603 105.587Z" fill="#FFED9F"/>
<path d="M146.883 58.797C136.835 46.9947 121.2 35.5547 108.082 35.5547C107.453 35.5547 106.862 35.5738 106.252 35.631C105.032 35.7263 104.116 36.3364 103.602 37.347C100.513 43.4102 112.544 63.5255 112.658 63.7161C115.69 68.7688 116.262 75.9379 116.796 82.8782C117.596 93.1742 118.359 102.898 127.397 103.718C128.312 103.794 129.227 103.852 130.123 103.852C143.203 103.852 154.586 95.2906 157.751 82.6494C159.067 77.3679 154.91 68.2159 146.883 58.797ZM156.111 82.2299C152.927 94.9092 140.915 103.241 127.53 102.021C119.904 101.335 119.236 92.7166 118.454 82.7447C117.902 75.6138 117.33 68.2349 114.069 62.8391C109.207 54.7739 103.201 41.7704 105.07 38.1096C105.337 37.6139 105.737 37.3469 106.366 37.3088C119.255 36.222 135.348 47.8527 145.586 59.8838C153.156 68.7688 157.293 77.5395 156.111 82.2299Z" fill="#FFED9F"/>
<path d="M143.184 78.0352C142.364 69.3027 132.64 56.4327 125.013 56.4327C124.289 56.4327 123.869 56.7949 123.641 57.1C122.725 58.3203 123.412 60.7417 124.804 65.2605C125.719 68.2159 126.748 71.5716 126.977 74.2791C127.073 75.3659 127.073 76.4527 127.092 77.5014C127.13 80.5139 127.187 83.3548 129.17 84.9755C130.219 85.8335 131.706 86.2529 133.708 86.2529C134.966 86.2529 136.434 86.0813 138.112 85.7763C141.792 85.0327 143.584 82.3061 143.184 78.0352ZM137.826 84.0794C133.994 84.8039 131.515 84.6704 130.257 83.6408C128.884 82.5159 128.846 80.1707 128.808 77.4442C128.789 76.3764 128.77 75.2706 128.674 74.1266C128.445 71.2284 127.378 67.7773 126.424 64.7267C125.7 62.3624 124.594 58.816 124.975 58.1105H124.994C131.63 58.1105 140.763 70.4467 141.487 78.1877C141.811 81.5625 140.572 83.5455 137.826 84.0794Z" fill="#FFED9F"/>
</g>
<path opacity="0.65" d="M197.886 118.399C196.532 125.53 194.34 132.661 191.289 139.678C163.547 203.532 79.5582 219.91 30.3471 170.699C0.278995 140.917 -5.25033 100.686 6.87607 66.8431C16.9433 90.2379 33.169 125.321 90.5978 143.014C131.42 155.579 178.018 144.692 197.886 118.399Z" fill="url(#paint1_linear_5_691)"/>
<path opacity="0.65" d="M199.583 100.515C199.564 106.426 199.011 112.412 197.867 118.399C196.514 125.53 194.321 132.661 191.27 139.678C163.528 203.532 79.5395 219.91 30.3285 170.699C24.475 164.903 19.5558 158.706 15.5137 152.243C154.433 215.43 198.344 96.2057 198.344 96.2057L199.583 100.515Z" fill="url(#paint2_linear_5_691)"/>
<defs>
<radialGradient id="paint0_radial_5_691" cx="0" cy="0" r="1" gradientUnits="userSpaceOnUse" gradientTransform="translate(101.92 62.0754) scale(99.3385 99.3385)">
<stop stop-color="#FFD83D"/>
<stop offset="1" stop-color="#FC7B24"/>
</radialGradient>
<linearGradient id="paint1_linear_5_691" x1="84.5241" y1="201.009" x2="99.7547" y2="103.421" gradientUnits="userSpaceOnUse">
<stop stop-color="#E04127"/>
<stop offset="1" stop-color="#E04127" stop-opacity="0.1"/>
</linearGradient>
<linearGradient id="paint2_linear_5_691" x1="127.211" y1="206.37" x2="102.674" y2="106.53" gradientUnits="userSpaceOnUse">
<stop stop-color="#C22C27"/>
<stop offset="1" stop-color="#D33127" stop-opacity="0.2"/>
</linearGradient>
</defs>
</svg>
