<svg width="201" height="202" viewBox="0 0 201 202" fill="none" xmlns="http://www.w3.org/2000/svg">
<path d="M200.992 100.993C200.992 104.508 200.814 107.978 200.457 111.404C200.115 114.785 199.595 118.122 198.926 121.414C197.305 129.278 194.778 136.8 191.449 143.86C188.03 151.144 183.748 157.951 178.768 164.148C173.685 170.478 167.842 176.168 161.376 181.098C152.591 187.816 142.661 193.118 131.943 196.649C122.058 199.925 111.473 201.683 100.488 201.683C85.816 201.683 71.8873 198.525 59.3261 192.865C46.4974 187.086 35.1106 178.7 25.8198 168.363C10.9397 151.814 1.45564 130.276 0.162364 106.563C0.0583073 104.716 0.0137024 102.854 0.0137024 100.978C0.0137024 92.1002 1.15833 83.4908 3.31379 75.2836C4.91924 69.1469 7.10447 63.2485 9.76536 57.633C25.9239 23.717 60.4708 0.272156 100.503 0.272156C133.697 0.272156 163.145 16.4035 181.429 41.2633C184.373 45.2701 187.034 49.5152 189.382 53.939C195.849 66.1828 199.877 79.9309 200.784 94.5281C200.918 96.6879 200.992 98.8327 200.992 100.993Z" fill="url(#paint0_radial_23_30)"/>
<defs>
<radialGradient id="paint0_radial_23_30" cx="0" cy="0" r="1" gradientUnits="userSpaceOnUse" gradientTransform="translate(86.3149 47.6865) scale(177.151 177.506)">
<stop stop-color="#31E7C2"/>
<stop offset="1" stop-color="#652FB0"/>
</radialGradient>
</defs>
</svg>
