<svg width="177" height="176" viewBox="0 0 177 176" fill="none" xmlns="http://www.w3.org/2000/svg">
<path d="M175.741 96.0936C171.783 139.041 135.979 175.776 88.4942 175.776C29.2044 175.776 -12.7387 117.97 4.96905 61.9021C11.0661 42.4714 23.9684 25.4313 41.5373 14.2287C45.1761 11.9215 49.0232 9.85055 53.037 8.05759C98.5772 -12.1654 152.159 9.86446 170.186 56.6622C175.241 69.8245 176.922 83.237 175.741 96.0936Z" fill="url(#paint0_radial_23_164)"/>
<path d="M129.757 165.435C117.465 172.024 103.41 175.762 88.4803 175.762C54.4675 175.762 24.9822 156.345 10.4966 127.978C16.6353 131.119 27.9544 136.109 41.1067 138.152C60.1895 141.112 83.286 137.234 94.1467 142.794C112.257 152.065 115.202 162.711 129.757 165.435Z" fill="url(#paint1_linear_23_164)"/>
<path d="M56.0508 125.267C39.2041 126.421 15.8021 118.443 4.91354 114.287C2.34418 106.031 0.955322 97.2611 0.955322 88.1712C0.955322 84.9049 1.13588 81.6804 1.48309 78.5114C6.23294 84.1405 17.1215 95.8851 30.8155 103.113C49.3566 112.911 78.7029 123.725 56.0508 125.267Z" fill="url(#paint2_linear_23_164)"/>
<path d="M163.575 133.218C160.284 138.708 156.395 143.809 152.02 148.437C140.784 145.365 128.257 139.806 118.104 131.202C100.036 115.9 97.5079 109.047 55.8009 95.6488C26.7046 86.2948 11.3856 70.9365 4.78857 62.4998C6.84407 55.7727 9.69118 49.3792 13.2327 43.4444C21.4964 52.3814 39.8152 69.8941 63.0229 78.1223C94.9524 89.4638 100.091 88.4214 128.924 114.704C141.201 125.921 153.506 131.036 163.575 133.218Z" fill="url(#paint3_linear_23_164)"/>
<path d="M176.019 88.1712C176.019 97.9977 174.408 107.435 171.422 116.247C162.964 116.066 149.867 112.578 135.076 97.1916C109.327 70.3944 71.2307 65.2379 70.7169 56.4816C70.203 47.7252 109.855 54.9388 134.048 68.3374C151.45 77.9832 164.339 84.9466 175.95 84.6408C175.991 85.8083 176.019 86.9897 176.019 88.1712Z" fill="url(#paint4_linear_23_164)"/>
<path d="M52.7038 39.4832C42.2181 34.5907 30.0518 33.8124 29.5379 37.9404C29.024 42.0684 36.746 55.4531 50.6483 52.8817C64.5368 50.2965 60.4258 43.083 52.7038 39.4832Z" fill="url(#paint5_linear_23_164)"/>
<path d="M170.186 56.6622C157.187 48.7537 135.007 43.3331 100.591 35.3552C71.6338 28.642 58.7314 16.6889 53.0371 8.05761C60.4119 4.79136 68.3144 2.49804 76.592 1.37222C82.9251 7.39047 95.9941 15.6326 122.729 22.4708C137.909 26.3486 149.701 31.1438 158.728 35.8972C163.436 42.2212 167.297 49.1985 170.186 56.6622Z" fill="url(#paint6_linear_23_164)"/>
<path d="M128.382 144.601C123.868 142.113 108.299 133.259 118.091 151.3C121.938 158.389 138.687 150.272 128.382 144.601Z" fill="url(#paint7_linear_23_164)"/>
<path d="M107.272 135.316C105.161 135.469 106.244 139.959 108.299 140.473C110.369 140.987 114.494 134.802 107.272 135.316Z" fill="url(#paint8_linear_23_164)"/>
<path opacity="0.45" d="M171.408 116.289C169.394 122.251 166.756 127.908 163.575 133.218C160.284 138.708 156.395 143.809 152.02 148.437C145.59 155.234 138.076 160.988 129.771 165.435C117.479 172.024 103.424 175.762 88.4941 175.762C54.4813 175.762 24.9961 156.345 10.5105 127.978C8.27444 123.613 6.39951 119.041 4.92733 114.287C2.35797 106.031 0.969116 97.2611 0.969116 88.1711C0.969116 84.9049 1.14967 81.6803 1.49688 78.5114C2.09409 73.0074 3.20516 67.6424 4.78844 62.4859C4.84399 62.2913 4.91344 62.0828 4.969 61.8882C17.6908 48.2256 41.7039 56.0646 53.7452 73.9942C71.8141 100.93 115.007 181.183 171.408 116.289Z" fill="url(#paint9_linear_23_164)"/>
<path opacity="0.55" d="M171.797 115.107C170.214 120.264 167.283 127.046 163.575 133.218C124.118 198.987 25.7741 185.436 4.49695 112.87C15.4272 127.797 30.1072 139.097 49.6205 144.601C119.174 164.171 154.812 137.79 171.797 115.107Z" fill="url(#paint10_linear_23_164)"/>
<path d="M170.186 56.6623C175.255 69.8107 176.922 83.2371 175.741 96.0936C173.075 73.4244 161.853 36.5644 118.604 19.3853C86.9109 6.79284 60.3701 8.84987 41.5234 14.2288C45.1622 11.9215 49.0093 9.8506 53.0231 8.05763C98.5772 -12.1653 152.159 9.87839 170.186 56.6623Z" fill="url(#paint11_linear_23_164)"/>
<defs>
<radialGradient id="paint0_radial_23_164" cx="0" cy="0" r="1" gradientUnits="userSpaceOnUse" gradientTransform="translate(86.1647 54.1454) scale(87.5714 87.6376)">
<stop stop-color="#EACCA0"/>
<stop offset="1" stop-color="#D98301"/>
</radialGradient>
<linearGradient id="paint1_linear_23_164" x1="92.4151" y1="203.418" x2="19.7247" y2="18.7389" gradientUnits="userSpaceOnUse">
<stop stop-color="#A65B31"/>
<stop offset="1" stop-color="#B16E31" stop-opacity="0.2"/>
</linearGradient>
<linearGradient id="paint2_linear_23_164" x1="71.3447" y1="211.712" x2="-1.34561" y2="27.0326" gradientUnits="userSpaceOnUse">
<stop stop-color="#A66231"/>
<stop offset="1" stop-color="#B18D31" stop-opacity="0.2"/>
</linearGradient>
<linearGradient id="paint3_linear_23_164" x1="121.206" y1="192.086" x2="48.5156" y2="7.40693" gradientUnits="userSpaceOnUse">
<stop stop-color="#A64D31"/>
<stop offset="1" stop-color="#B16E31" stop-opacity="0.2"/>
</linearGradient>
<linearGradient id="paint4_linear_23_164" x1="164.338" y1="175.11" x2="91.6473" y2="-9.56985" gradientUnits="userSpaceOnUse">
<stop stop-color="#A64D31"/>
<stop offset="1" stop-color="#B16731" stop-opacity="0.2"/>
</linearGradient>
<linearGradient id="paint5_linear_23_164" x1="105.691" y1="198.193" x2="33.001" y2="13.5136" gradientUnits="userSpaceOnUse">
<stop stop-color="#A66931"/>
<stop offset="1" stop-color="#B16E31" stop-opacity="0.2"/>
</linearGradient>
<linearGradient id="paint6_linear_23_164" x1="167.255" y1="173.961" x2="94.5649" y2="-10.7189" gradientUnits="userSpaceOnUse">
<stop stop-color="#A66931"/>
<stop offset="1" stop-color="#B16E31" stop-opacity="0.2"/>
</linearGradient>
<linearGradient id="paint7_linear_23_164" x1="138.653" y1="185.219" x2="65.9628" y2="0.540266" gradientUnits="userSpaceOnUse">
<stop stop-color="#A65431"/>
<stop offset="1" stop-color="#B16E31" stop-opacity="0.2"/>
</linearGradient>
<linearGradient id="paint8_linear_23_164" x1="129.061" y1="188.995" x2="56.3705" y2="4.3149" gradientUnits="userSpaceOnUse">
<stop stop-color="#A66231"/>
<stop offset="1" stop-color="#B15F31" stop-opacity="0.2"/>
</linearGradient>
<linearGradient id="paint9_linear_23_164" x1="69.8251" y1="178.465" x2="95.7145" y2="50.9638" gradientUnits="userSpaceOnUse">
<stop stop-color="#A35A31"/>
<stop offset="1" stop-color="#B87B42" stop-opacity="0.3"/>
</linearGradient>
<linearGradient id="paint10_linear_23_164" x1="97.3179" y1="197.111" x2="87.5206" y2="108.486" gradientUnits="userSpaceOnUse">
<stop stop-color="#A35C1A"/>
<stop offset="1" stop-color="#A3662E" stop-opacity="0.1"/>
</linearGradient>
<linearGradient id="paint11_linear_23_164" x1="198.16" y1="-54.9244" x2="101.273" y2="64.0323" gradientUnits="userSpaceOnUse">
<stop stop-color="#F6E4A4"/>
<stop offset="1" stop-color="#F9E2B5" stop-opacity="0"/>
</linearGradient>
</defs>
</svg>
